<svg width="96" height="96" xmlns="http://www.w3.org/2000/svg" xmlns:xlink="http://www.w3.org/1999/xlink" xml:space="preserve" overflow="hidden"><defs><clipPath id="clip0"><rect x="365" y="448" width="96" height="96"/></clipPath></defs><g clip-path="url(#clip0)" transform="translate(-365 -448)"><path d="M393 473 416 473 416 475 393 475Z"/><path d="M393 488 416 488 416 490 393 490Z"/><path d="M393 503 416 503 416 505 393 505Z"/><path d="M393 518 416 518 416 520 393 520Z"/><path d="M443 456 383 456 383 536 443 536ZM441 534 385 534 385 458 441 458Z"/><path d="M433 469.5 424 469.5 424 478.5 433 478.5ZM431 476.5 426 476.5 426 471.5 431 471.5Z"/><path d="M433 484.5 424 484.5 424 493.5 433 493.5ZM431 491.5 426 491.5 426 486.5 431 486.5Z"/><path d="M433 499.5 424 499.5 424 508.5 433 508.5ZM431 506.5 426 506.5 426 501.5 431 501.5Z"/><path d="M433 514.5 424 514.5 424 523.5 433 523.5ZM431 521.5 426 521.5 426 516.5 431 516.5Z"/></g></svg>