<?xml version="1.0" encoding="UTF-8"?>
<svg id="Layer_2" data-name="Layer 2" xmlns="http://www.w3.org/2000/svg" xmlns:xlink="http://www.w3.org/1999/xlink" viewBox="0 0 1319.83 306.51">
  <defs>
    <style>
      .cls-1 {
        fill: url(#linear-gradient);
      }

      .cls-2 {
        fill: #c0edf2;
      }
    </style>
    <linearGradient id="linear-gradient" x1="655.89" y1="187.6" x2="660.15" y2="305.95" gradientUnits="userSpaceOnUse">
      <stop offset="0" stop-color="#258a31"/>
      <stop offset=".36" stop-color="#22872f"/>
      <stop offset=".61" stop-color="#1b7e2b"/>
      <stop offset=".82" stop-color="#0f6e25"/>
      <stop offset="1" stop-color="#005b1d"/>
    </linearGradient>
  </defs>
  <g id="Paper_cut_art_of_natural_and_earth_day_april_22_concept_Ecology_and_environment_background_template._Vector_illustration" data-name="Paper cut art of natural and earth day april 22 concept Ecology and environment background template. Vector illustration">
    <path class="cls-1" d="m1319.83,305.5v.07H0v-.07c0-25.64,1.45-50.94,4.27-75.83,1.14-10.01,2.5-19.95,4.07-29.82,41.95,10.59,236.63,52.24,540.66,3.44,335.14-53.8,517.46-76.95,750.28-62.49,7.37,28.91,12.84,58.58,16.28,88.87,2.82,24.89,4.27,50.19,4.27,75.83Z"/>
    <g>
      <path class="cls-2" d="m1096.72,118.47v-13.97h-8.64v-19.29h-13.3v-33.69h-6.65v33.69h-13.3v19.29h-8.64v13.97h-13.54v187.54h81.14V118.47h-17.05Zm-29.92-21.28h9.31v12.85h-9.31v-12.85Zm-19.29,188.5h-4.47v-129.85h4.47v129.85Zm9.31,0h-4.47v-129.85h4.47v129.85Zm9.31,0h-4.47v-129.85h4.47v129.85Zm9.31,0h-4.47v-129.85h4.47v129.85Zm9.31,0h-4.47v-129.85h4.47v129.85Zm9.31,0h-4.47v-129.85h4.47v129.85Zm9.31,0h-4.47v-129.85h4.47v129.85Zm.24-146.9h-60.81v-8.4h60.81v8.4Z"/>
      <path class="cls-2" d="m1114.27,306.51h-82.14V117.97h13.54v-13.97h8.64v-19.29h13.3v-33.69h7.65v33.69h13.3v19.29h8.64v13.97h17.05v188.54Zm-81.14-1h80.14V118.97h-17.05v-13.97h-8.64v-19.29h-13.3v-33.69h-5.65v33.69h-13.3v19.29h-8.64v13.97h-13.54v186.54Zm70.74-19.32h-5.47v-130.85h5.47v130.85Zm-4.47-1h3.47v-128.85h-3.47v128.85Zm-4.84,1h-5.47v-130.85h5.47v130.85Zm-4.47-1h3.47v-128.85h-3.47v128.85Zm-4.84,1h-5.47v-130.85h5.47v130.85Zm-4.47-1h3.47v-128.85h-3.47v128.85Zm-4.84,1h-5.47v-130.85h5.47v130.85Zm-4.47-1h3.47v-128.85h-3.47v128.85Zm-4.84,1h-5.47v-130.85h5.47v130.85Zm-4.47-1h3.47v-128.85h-3.47v128.85Zm-4.84,1h-5.47v-130.85h5.47v130.85Zm-4.47-1h3.47v-128.85h-3.47v128.85Zm-4.84,1h-5.47v-130.85h5.47v130.85Zm-4.47-1h3.47v-128.85h-3.47v128.85Zm60.57-145.9h-61.81v-9.4h61.81v9.4Zm-60.81-1h59.81v-7.4h-59.81v7.4Zm33.31-27.74h-10.31v-13.85h10.31v13.85Zm-9.31-1h8.31v-11.85h-8.31v11.85Z"/>
    </g>
    <g>
      <g>
        <g>
          <path class="cls-2" d="m468.99,94.31l-.31-.51-.79-1.3-.07-.12-.15-.24-.21-.35-.28-.46-.02-.04-.2-.33-.32-.53-.04-.06-.02-.03-.41-.68h0s-.43-.71-.43-.71l-.32-.52-.78-1.28.57,2.56.16.71h0s.03.15.03.15l.09.4h0v.05s.14.59.14.59l.06.27.08.38h0l.06.27.13.59v.05s.07.26.07.26l.19.86.29,1.28,2.47,11.03,17.34,77.36,29.84-12.03-47.2-77.65Zm-.48,2.44l45.22,74.4-26.18,10.56-19.04-84.96Z"/>
          <polygon class="cls-2" points="513.74 171.15 487.56 181.71 468.52 96.75 513.74 171.15"/>
        </g>
        <g>
          <path class="cls-2" d="m469.82,91.67h0l-.58-.14-1.47-.36-.13-.03-.27-.07-.39-.09-.29-.07-.23-.06h-.04s-.37-.1-.37-.1h0l-.6-.14-.07-.02-.25-.06-.56-.14-.8-.19-2.04-.5,2.83,1.79h0s.13.08.13.08l.25.16.1.06.05.03.51.33.23.15.33.21.23.15.51.32.05.03h0s.07.04.07.04l.15.1.74.47,1.11.7,76.51,48.5,12.59-29.6-88.28-21.53Zm74.92,48.67l-73.54-46.61,84.58,20.63-11.05,25.98Z"/>
          <polygon class="cls-2" points="555.79 114.37 544.74 140.34 471.2 93.73 555.79 114.37"/>
        </g>
        <g>
          <path class="cls-2" d="m546.18,42.03l-77.65,47.2-.51.31-1.3.79-.12.07h-.01s-.23.15-.23.15l-.35.21-.46.28-.04.02-.33.2-.23.14-.3.18-.06.04-.71.43-.71.43-1.8,1.09,3.27-.73.08-.02.08-.02.4-.09h.05s.6-.15.6-.15l.27-.06.38-.08h0s.27-.06.27-.06l.11-.02.49-.11h.05s.26-.07.26-.07l.85-.19,1.28-.29,88.4-19.81-12.03-29.84Zm-.81,2.45l10.56,26.18-84.96,19.04,74.4-45.22Z"/>
          <polygon class="cls-2" points="555.93 70.66 470.97 89.7 545.37 44.48 555.93 70.66"/>
        </g>
        <g>
          <path class="cls-2" d="m487.42.12l-21.28,87.24-.25,1.04h0s-.14.58-.14.58l-.36,1.48-.03.13-.07.27-.09.39-.13.53v.04s-.1.37-.1.37h0s-.14.6-.14.6l-.02.07-.19.79v.02s-.2.8-.2.8l-.5,2.05.33-.51,1.47-2.32.08-.13.22-.34.03-.04.33-.52.15-.23.21-.33.11-.17.04-.06.33-.51.03-.05.14-.22.47-.74.7-1.11,48.5-76.52L487.42.12Zm-19.48,86.9L488.58,2.43l25.98,11.05-46.61,73.54Z"/>
          <polygon class="cls-2" points="514.56 13.47 467.95 87.01 488.58 2.43 514.56 13.47"/>
        </g>
        <g>
          <path class="cls-2" d="m467.11,93.83l-.06-.28-.03-.15h0l-.09-.4v-.05s-.15-.59-.15-.59l-.06-.27-.08-.38-.06-.27-.13-.59v-.05s-.07-.26-.07-.26l-.19-.86-.29-1.28-.26-1.17L446.08,0l-29.84,12.03,47.2,77.65.31.51.79,1.3.07.12.15.24.11.18.1.16.28.46.02.04.2.33.32.53.04.06.43.71.43.7.8,1.31.3.49-.67-2.99Zm-48.41-80.99l26.18-10.56,19.04,84.96-45.22-74.4Z"/>
          <polygon class="cls-2" points="463.92 87.25 418.69 12.85 444.87 2.29 463.92 87.25"/>
        </g>
        <g>
          <path class="cls-2" d="m467.9,92.51l-.13-.08-.34-.22-.04-.03-.51-.33-.06-.04-.18-.11-.33-.21-.23-.15-.51-.32-.05-.03-.22-.14-.22-.14-.53-.34-1.1-.7-76.52-48.5-12.59,29.6,88.28,21.53.58.14,1.47.36.07.02.06.02.27.07.39.09.53.13h.04s.37.1.37.1l.6.15h.04s.03.02.03.02l.81.2.8.19,2.04.5-2.83-1.79Zm-91.25-22.88l11.05-25.98,73.54,46.61-84.58-20.63Z"/>
          <polygon class="cls-2" points="461.23 90.26 376.64 69.63 387.69 43.65 461.23 90.26"/>
        </g>
        <g>
          <path class="cls-2" d="m467.76,91.17l-.15.03-.4.09h-.05s-.42.11-.42.11l-.17.04-.27.06-.38.08-.27.06-.59.13h-.05s-.11.04-.11.04l-.15.03-.85.19h0l-1.28.29h0l-88.4,19.81,12.03,29.84,77.66-47.2h0s.51-.31.51-.31l.08-.05,1.22-.74.12-.07.24-.15.34-.21.46-.28.04-.02.06-.04.27-.16h0s.53-.32.53-.32l.06-.04.71-.43h0l.7-.43,1.8-1.09-3.27.73Zm-80.7,48.35l-10.56-26.18,84.96-19.04-74.4,45.22Z"/>
          <polygon class="cls-2" points="461.46 94.3 387.06 139.52 376.51 113.34 461.46 94.3"/>
        </g>
        <g>
          <path class="cls-2" d="m466.73,90.32h0l-.08.13-.03.05-.18.29-.03.05-.33.51-.15.23-.21.33-.15.23-.33.51h0s-.03.05-.03.05h0l-.14.22-.47.74h0s-.7,1.11-.7,1.11l-48.5,76.52,29.6,12.59,15.11-61.93,6.43-26.35h0s.14-.58.14-.58l.36-1.47h0s.01-.06.01-.06l.02-.08.07-.27.09-.4.13-.52v-.04s.1-.38.1-.38h0s.15-.6.15-.6l.02-.07.2-.81h0s.19-.8.19-.8l.5-2.04-1.79,2.83Zm-3.4,11.4l-19.48,79.85-25.98-11.05,46.07-72.69.54-.85-1.15,4.73Z"/>
          <polygon class="cls-2" points="463.94 97.83 463.33 101.72 443.85 181.57 417.87 170.52 463.94 97.83"/>
        </g>
      </g>
      <path class="cls-2" d="m475.83,152.33v-.24s-.04,0-.04,0l-6.78-45.45h0s-1.53-10.3-1.53-10.3l-.37-2.5h0s-.05-.34-.05-.34v-.09s-.07-.36-.07-.36h0s-.02-.13-.02-.13l-.09-.58h0l-.06-.41v-.1s-.08-.42-.08-.42l-.07-.5-.06-.4v-.1s-.02-.04-.02-.04l-.45-3h0s-.26-1.74-.26-1.74l-.26,1.61h0s-.19,1.23-.19,1.23l-.2,1.28-.13.79-.03.2-.1.67h0l-.05.34v.09s-.05.22-.05.22l-.12.78v.03s-.13.8-.13.8v.02s-.12.75-.12.75l-.25,1.58h0s-.29,1.84-.29,1.84l-.62,3.89-3.21,20.23-27.03,170.23,63.64.3-20.89-140.15Zm-6.63-30.69l-6.98-.03,3.6-22.65,3.38,22.69Zm-7.68,4.38l8.34.04,3.88,26.02-16.34-.08,4.12-25.98Zm-4.83,30.4l17.7.08,5.26,35.3-28.56-.14,5.6-35.24Zm-6.3,39.66l29.92.14,5.26,35.3-40.78-.19,5.6-35.24Zm-6.3,39.66l42.14.2,5.26,35.3-53-.25,5.6-35.25Zm-6.3,39.66l54.36.26,2.2,14.79-58.91-.28,2.34-14.76Z"/>
    </g>
    <g>
      <path class="cls-2" d="m1302.44,272.17l-.03-4.31-2.9.02-.03-5.28-16.3.09-.68-116.92-25.3.15-.13-22.49-14.62.09-.21-36.85-2.81.02.21,36.85-14.62.09.13,22.49-8.43.05.68,116.92-8.43.05.25,42.72,90.5-.53v-.05s2.9-.02,2.9-.02v-.14s4.49-.03,4.49-.03l-.19-32.95-4.49.03Zm-33.22-121.08l7.87-.05.06,10.87-7.87.05-.06-10.87Zm.13,23.05l7.87-.05.06,10.86-7.87.05-.06-10.86Zm.13,23.05l7.87-.05.06,10.87-7.87.05-.06-10.87Zm.13,23.05l7.87-.05.06,10.86-7.87.05-.06-10.86Zm.13,23.05l7.87-.05.06,10.87-7.87.05-.06-10.87Zm-11.78-92.12l7.87-.05.06,10.87-7.87.05-.06-10.87Zm.13,23.05l7.87-.05.06,10.86-7.87.05-.06-10.86Zm.13,23.05l7.87-.05.06,10.87-7.87.05-.06-10.87Zm.13,23.05l7.87-.05.06,10.86-7.87.05-.06-10.86Zm.13,23.05l7.87-.05.06,10.87-7.87.05-.06-10.87Zm-14.78-92.11l11.62-.07.06,10.87-11.62.07-.06-10.87Zm.13,23.05l11.62-.07.06,10.86-11.62.07-.06-10.86Zm.13,23.05l11.62-.07.06,10.87-11.62.07-.06-10.87Zm.13,23.05l11.62-.07.06,10.86-11.62.07-.06-10.86Zm.13,23.05l11.62-.07.06,10.87-11.62.07-.06-10.87Zm-12.53-92.12l8.24-.05.06,10.87-8.24.05-.06-10.87Zm.13,23.05l8.24-.05.06,10.86-8.24.05-.06-10.86Zm.13,23.05l8.24-.05.06,10.87-8.24.05-.06-10.87Zm.13,23.05l8.24-.05.06,10.86-8.24.05-.06-10.86Zm.13,23.05l8.24-.05.06,10.87-8.24.05-.06-10.87Zm-8.78-92.14l2.62-.02.06,10.87-2.62.02-.06-10.87Zm.13,23.05l2.62-.02.06,10.86-2.62.02-.06-10.86Zm.13,23.05l2.62-.02.06,10.87-2.62.02-.06-10.87Zm.13,23.05l2.62-.02.06,10.86-2.62.02-.06-10.86Zm.13,23.05l2.62-.02.06,10.87-2.62.02-.06-10.87Zm-7.33,27.4l73.76-.43.03,5.5-73.76.43-.03-5.5Zm74.11,27.61l-73.76.43-.03-5.5,73.76-.43.03,5.5Zm-.06-11.05l-73.76.43-.03-5.5,73.76-.43.03,5.5Z"/>
      <path class="cls-2" d="m1208.73,306.35l-.25-43.72,8.43-.05-.68-116.92,8.43-.05-.13-22.49,14.62-.08-.21-36.85,3.81-.02.21,36.85,14.62-.08.13,22.49,25.3-.15.68,116.92,16.3-.09.03,5.28,2.9-.02.03,4.31,4.49-.03.2,33.95-4.49.03v.14s-94.41.6-94.41.6Zm.75-42.73l.24,41.72,89.51-.52.5-.05h2.4s0-.15,0-.15l4.5-.03-.19-31.95-4.49.03-.03-4.31-2.9.02-.03-5.28-16.3.09-.68-116.92-25.3.15-.13-22.49-14.62.09-.21-36.85h-1.81s.21,36.86.21,36.86l-14.62.09.13,22.49-8.43.05.68,116.92-8.43.05Zm7.08,35.87l-.04-6.5,74.76-.44.04,6.5-74.76.44Zm.97-5.5l.03,4.5,72.76-.42-.03-4.5-72.76.42Zm-1.03-5.55l-.04-6.5,74.76-.44.04,6.5-74.76.44Zm.97-5.5l.03,4.5,72.76-.42-.03-4.5-72.76.42Zm-1.22-5.99l-.04-6.5,74.76-.44.04,6.5-74.76.44Zm.97-5.5l.03,4.5,72.76-.42-.03-4.5-72.76.42Zm6.4-16.53l-.07-11.87,3.62-.02.07,11.87-3.62.02Zm.94-10.87l.06,9.87h1.62s-.06-9.88-.06-9.88h-1.62Zm7.31,10.83l-.07-11.87,9.24-.05.07,11.87-9.24.05Zm.94-10.88l.06,9.87,7.24-.04-.06-9.87-7.24.04Zm11.06,10.81l-.07-11.87,12.62-.07.07,11.87-12.62.07Zm.94-10.88l.06,9.87,10.62-.06-.06-9.87-10.62.06Zm13.3,10.79l-.07-11.87,8.87-.05.07,11.87-8.87.05Zm.94-10.88l.06,9.87,6.87-.04-.06-9.87-6.87.04Zm10.3,10.81l-.07-11.87,8.87-.05.07,11.87-8.87.05Zm.94-10.88l.06,9.87,6.87-.04-.06-9.87-6.87.04Zm-46.79-11.91l-.07-11.87,3.62-.02.07,11.87-3.62.02Zm.94-10.87l.06,9.87h1.62s-.06-9.88-.06-9.88h-1.62Zm7.31,10.82l-.07-11.86,9.24-.05.07,11.86-9.24.05Zm.94-10.87l.06,9.86,7.24-.04-.06-9.86-7.24.04Zm11.06,10.8l-.07-11.87,12.62-.07.07,11.87-12.62.07Zm.94-10.87l.06,9.87,10.62-.06-.06-9.87-10.62.06Zm13.3,10.79l-.07-11.87,8.87-.05.07,11.86-8.87.05Zm.94-10.87l.06,9.87,6.87-.04-.06-9.86-6.87.04Zm10.3,10.81l-.07-11.87,8.87-.05.07,11.86-8.87.05Zm.94-10.87l.06,9.87,6.87-.04-.06-9.86-6.87.04Zm-46.79-11.91l-.07-11.87,3.62-.02.07,11.87-3.62.02Zm.94-10.88l.06,9.87h1.62s-.06-9.88-.06-9.88h-1.62Zm7.31,10.83l-.07-11.87,9.24-.05.07,11.87-9.24.05Zm.94-10.87l.06,9.87,7.24-.04-.06-9.87-7.24.04Zm11.06,10.8l-.07-11.87,12.62-.07.07,11.87-12.62.07Zm.94-10.87l.06,9.87,10.62-.06-.06-9.87-10.62.06Zm13.3,10.79l-.07-11.87,8.87-.05.07,11.87-8.87.05Zm.94-10.87l.06,9.87,6.87-.04-.06-9.87-6.87.04Zm10.3,10.81l-.07-11.87,8.87-.05.07,11.87-8.87.05Zm.94-10.87l.06,9.87,6.87-.04-.06-9.87-6.87.04Zm-46.79-11.91l-.07-11.86,3.62-.02.07,11.86-3.62.02Zm.94-10.87l.06,9.86h1.62s-.06-9.87-.06-9.87h-1.62Zm7.31,10.82l-.07-11.86,9.24-.05.07,11.86-9.24.05Zm.94-10.87l.06,9.86,7.24-.04-.06-9.86-7.24.04Zm11.06,10.8l-.07-11.86,12.62-.07.07,11.86-12.62.07Zm.94-10.87l.06,9.86,10.62-.06-.06-9.86-10.62.06Zm13.3,10.79l-.07-11.86,8.87-.05.07,11.86-8.87.05Zm.94-10.87l.06,9.86,6.87-.04-.06-9.86-6.87.04Zm10.3,10.81l-.07-11.86,8.87-.05.07,11.86-8.87.05Zm.94-10.87l.06,9.86,6.87-.04-.06-9.86-6.87.04Zm-46.79-11.91l-.07-11.87,3.62-.02.07,11.87-3.62.02Zm.94-10.88l.06,9.87h1.62s-.06-9.88-.06-9.88h-1.62Zm7.31,10.83l-.07-11.87,9.24-.05.07,11.87-9.24.05Zm.94-10.88l.06,9.87,7.24-.04-.06-9.87-7.24.04Zm11.06,10.81l-.07-11.87,12.62-.07.07,11.87-12.62.07Zm.94-10.88l.06,9.87,10.62-.06-.06-9.87-10.62.06Zm13.3,10.79l-.07-11.87,8.87-.05.07,11.87-8.87.05Zm.94-10.88l.06,9.87,6.87-.04-.06-9.87-6.87.04Zm10.3,10.81l-.07-11.87,8.87-.05.07,11.87-8.87.05Zm.94-10.88l.06,9.87,6.87-.04-.06-9.87-6.87.04Z"/>
    </g>
    <g>
      <path class="cls-2" d="m1181.95,246.53l.68-43.84-6.81-.11.52-33.77-5.99-.09.4-25.44-4.74-.07.24-15.14-2.27-.04.1-6.25c.01-.91-.71-1.66-1.62-1.67h-.07s.04-2.83.04-2.83c.01-.65-.51-1.19-1.17-1.2s-1.19.51-1.2,1.17l-.04,2.83h-.07c-.91-.02-1.66.71-1.67,1.62l-.1,6.25-2.76-.04-.24,15.14-4.74-.07-.4,25.44-5.99-.09-.52,33.77-6.81-.11-.68,43.84-5.33-.08-.92,59.24,56.58.88.92-59.24-5.33-.08Zm-18.29-117.87l-.21,13.73h-.38s.21-13.74.21-13.74h.38Zm-.76-.01l-.21,13.73h-.38s.21-13.74.21-13.74h.38Zm-.76-.01l-.21,13.73h-.38s.21-13.74.21-13.74h.38Zm-.76-.01l-.21,13.73h-.38s.21-13.74.21-13.74h.38Zm-.76-.01l-.21,13.73h-.38s.21-13.74.21-13.74h.38Zm-.76-.01l-.21,13.73h-.38s.21-13.74.21-13.74h.38Zm-1.14-.02h.38s-.21,13.74-.21,13.74h-.38s.21-13.74.21-13.74Zm6.8.11h.38s-.21,13.74-.21,13.74h-.38s.21-13.74.21-13.74Zm-.76-.01h.38s-.21,13.74-.21,13.74h-.38s.21-13.74.21-13.74Zm-.76-.01h.38s-.21,13.74-.21,13.74h-.38s.21-13.74.21-13.74Zm-6.05-.09h.38s-.21,13.74-.21,13.74h-.38s.21-13.74.21-13.74Zm-.76-.01h.38s-.21,13.74-.21,13.74h-.38s.21-13.74.21-13.74Zm-.76-.01h.38s-.21,13.74-.21,13.74h-.38s.21-13.74.21-13.74Zm-.76-.01h.38s-.21,13.74-.21,13.74h-.38s.21-13.74.21-13.74Zm10.19,15.73l-.36,23.07h-.71s.36-23.09.36-23.09h.71Zm-1.42-.02l-.36,23.07h-.71s.36-23.09.36-23.09h.71Zm-1.42-.02l-.36,23.07h-.71s.36-23.09.36-23.09h.71Zm-1.42-.02l-.36,23.07h-.71s.36-23.09.36-23.09h.71Zm-1.42-.02l-.36,23.07h-.71s.36-23.09.36-23.09h.71Zm-1.42-.02l-.36,23.07h-.71s.36-23.09.36-23.09h.71Zm-1.42-.02l-.36,23.07h-.71s.36-23.09.36-23.09h.71Zm-2.13-.03h.71s-.36,23.09-.36,23.09h-.71s.36-23.09.36-23.09Zm14.18.22h.71s-.36,23.09-.36,23.09h-.71s.36-23.09.36-23.09Zm-1.42-.02h.71s-.36,23.09-.36,23.09h-.71s.36-23.09.36-23.09Zm-1.42-.02h.71s-.36,23.09-.36,23.09h-.71s.36-23.09.36-23.09Zm-12.76-.2h.71s-.36,23.09-.36,23.09h-.71s.36-23.09.36-23.09Zm-1.42-.02h.71s-.36,23.09-.36,23.09h-.71s.36-23.09.36-23.09Zm-1.42-.02h.71s-.36,23.09-.36,23.09h-.71s.36-23.09.36-23.09Zm17.64,26.06l-.47,30.37-1.14-.02.47-30.37,1.14.02Zm-2.25-.04l-.47,30.37-1.14-.02.47-30.37,1.14.02Zm-2.25-.03l-.47,30.37-1.14-.02.47-30.37,1.14.02Zm-2.25-.03l-.47,30.37-1.14-.02.47-30.37,1.14.02Zm-2.25-.03l-.47,30.37-1.14-.02.47-30.37,1.14.02Zm-2.25-.04l-.47,30.37-1.14-.02.47-30.37,1.14.02Zm-2.25-.03l-.47,30.37-1.14-.02.47-30.37,1.14.02Zm-3.39-.05l1.14.02-.47,30.37-1.14-.02.47-30.37Zm22.54.35l1.14.02-.47,30.37-1.14-.02.47-30.37Zm-2.25-.03l1.14.02-.47,30.37-1.14-.02.47-30.37Zm-1.59,30.35l-1.14-.02.47-30.37,1.14.02-.47,30.37Zm-20.95-30.7l1.14.02-.47,30.37-1.14-.02.47-30.37Zm-2.25-.03l1.14.02-.47,30.37-1.14-.02.47-30.37Zm-2.25-.03l1.14.02-.47,30.37-1.14-.02.47-30.37Zm29.93,34.66l-.61,39.46-1.62-.03.61-39.46,1.62.03Zm-3.2-.05l-.61,39.46-1.62-.03.61-39.46,1.62.03Zm-3.2-.05l-.61,39.46-1.62-.03.61-39.46,1.62.03Zm-3.2-.05l-.61,39.46-1.62-.03.61-39.46,1.62.03Zm-3.21-.05l-.61,39.46-1.62-.03.61-39.46,1.62.03Zm-3.2-.05l-.61,39.46-1.62-.03.61-39.46,1.62.03Zm-3.2-.05l-.61,39.46-1.62-.03.61-39.46,1.62.03Zm-3.21-.05l-.61,39.46-1.62-.03.61-39.46,1.62.03Zm-3.2-.05l-.61,39.46-1.62-.03.61-39.46,1.62.03Zm-4.82-.07l1.62.03-.61,39.46-1.62-.03.61-39.46Zm35.26.55l1.62.03-.61,39.46-1.62-.03.61-39.46Zm-3.2-.05l1.62.03-.61,39.46-1.62-.03.61-39.46Zm-35.26-.55l1.62.03-.61,39.46-1.62-.03.61-39.46Zm-3.21-.05l1.62.03-.61,39.46-1.62-.03.61-39.46Zm-4.53,96.28l-1.99-.03.81-51.91,1.99.03-.81,51.91Zm3.95.06l-1.99-.03.81-51.91,1.99.03-.81,51.91Zm3.95.06l-1.99-.03.81-51.91,1.99.03-.81,51.91Zm3.95.06l-1.99-.03.81-51.91,1.99.03-.81,51.91Zm3.95.06l-1.99-.03.81-51.91,1.99.03-.81,51.91Zm3.95.06l-1.99-.03.81-51.91,1.99.03-.81,51.91Zm3.95.06l-1.99-.03.81-51.91,1.99.03-.81,51.91Zm3.95.06l-1.99-.03.81-51.91,1.99.03-.81,51.91Zm3.95.06l-1.99-.03.81-51.91,1.99.03-.81,51.91Zm3.95.06l-1.99-.03.81-51.91,1.99.03-.81,51.91Zm3.95.06l-1.99-.03.81-51.91,1.99.03-.81,51.91Zm3.95.06l-1.99-.03.81-51.91,1.99.03-.81,51.91Zm3.95.06l-1.99-.03.81-51.91,1.99.03-.81,51.91Zm3.95.06l-1.99-.03.81-51.91,1.99.03-.81,51.91Z"/>
      <path class="cls-2" d="m1186.85,306.36l-57.58-.89.94-60.24,5.33.08.68-43.84,6.81.11.52-33.77,5.99.09.4-25.44,4.74.07.24-15.14,2.76.04.09-5.75c.02-1.03.77-1.89,1.74-2.07l.04-2.38c.01-.91.77-1.66,1.69-1.66.95.01,1.7.78,1.68,1.71l-.04,2.38c.42.09.78.3,1.07.6.4.41.61.95.6,1.53l-.09,5.75,2.27.04-.24,15.14,4.74.07-.39,25.44,5.99.09-.52,33.77,6.81.11-.68,43.84,5.33.08-.94,60.24Zm-56.56-1.88l55.58.86.9-58.24-5.33-.08.68-43.84-6.81-.11.03-2-2.04-.03.49-31.37,2.04.03v-.4s-5.98-.09-5.98-.09l.02-1.3-3.82-.06h0s-1.42-.02-1.42-.02h0s-1.42-.02-1.42-.02h0s-1.42-.02-1.42-.02h0s-1.42-.02-1.42-.02h0s-1.42-.02-1.42-.02h0s-5.67-.09-5.67-.09h0s-1.42-.02-1.42-.02h0s-1.31-.02-1.31-.02l-.02,1.3-5.99-.09v.4s2.08.03,2.08.03l-.49,31.37-2.08-.03-.03,2-6.81-.11-.68,43.84-5.33-.08-.91,58.24Zm44.03-104.42h.14s.46-29.37.46-29.37h-.14s-.46,29.37-.46,29.37Zm-29.3-.46h.14s.46-29.37.46-29.37h-.14s-.46,29.37-.46,29.37Zm23.94-55.79l1.28.02v-.06s-4.74-.07-4.74-.07v-.78s-.8-.01-.8-.01h0s-.76-.01-.76-.01h0s-8.26-.13-8.26-.13v.78s-4.75-.07-4.75-.07v.06s1.01.02,1.01.02h0s1.42.02,1.42.02h0s1.42.02,1.42.02h0s1.42.02,1.42.02h0s1.42.02,1.42.02h0s1.42.02,1.42.02h0s5.67.09,5.67.09h0s1.42.02,1.42.02h0s1.42.02,1.42.02h0s1.42.02,1.42.02h0Zm-5.54-15.66h.05s.1-6.39.1-6.39c0-.31-.11-.6-.32-.82-.21-.22-.5-.34-.81-.35h-.5s-.06-.51-.06-.51l.04-2.83c0-.38-.3-.69-.67-.7h0c-.38,0-.69.3-.7.67l-.05,3.33h-.5s0,0,0,0c-.71,0-1.22.51-1.23,1.13l-.1,6.39,4.74.07Zm21.93,173.25l-2.99-.05.82-52.91,2.99.05-.82,52.91Zm-1.98-1.03l.99.02.79-50.91-.99-.02-.79,50.91Zm-1.97.97l-2.99-.05.82-52.92,2.99.05-.82,52.91Zm-1.97-1.03h.99s.79-50.9.79-50.9l-.99-.02-.79,50.92Zm-1.98.97l-2.99-.05.82-52.91,2.99.05-.82,52.91Zm-1.97-1.03h.99s.79-50.9.79-50.9l-.99-.02-.79,50.91Zm-1.97.97l-2.99-.05.82-52.91,2.99.05-.82,52.91Zm-1.97-1.03h.99s.79-50.9.79-50.9h-.99s-.79,50.9-.79,50.9Zm-1.97.97l-2.99-.05.82-52.91,2.99.05-.82,52.91Zm-1.98-1.03l.99.02.79-50.92h-.99s-.79,50.9-.79,50.9Zm-1.97.97l-2.99-.05.82-52.91,2.99.05-.82,52.91Zm-1.97-1.03l.99.02.79-50.91-.99-.02-.79,50.91Zm-1.98.97l-2.99-.05.82-52.91,2.99.05-.82,52.91Zm-1.97-1.03l.99.02.79-50.91-.99-.02-.79,50.91Zm-1.97.97l-2.99-.05.82-52.91,2.99.05-.82,52.91Zm-1.97-1.03l.99.02.79-50.91-.99-.02-.79,50.91Zm-1.97.97l-2.99-.05.82-52.91,2.99.05-.82,52.91Zm-1.97-1.03h.99s.79-50.9.79-50.9l-.99-.02-.79,50.92Zm-1.98.97l-2.99-.05.82-52.91,2.99.05-.82,52.91Zm-1.97-1.03h.99s.79-50.9.79-50.9h-.99s-.79,50.9-.79,50.9Zm-1.97.97l-2.99-.05.82-52.91,2.99.05-.82,52.92Zm-1.98-1.03l.99.02.79-50.92h-.99s-.79,50.9-.79,50.9Zm-1.97.97l-2.99-.05.82-52.91,2.99.05-.82,52.91Zm-1.97-1.03l.99.02.79-50.91-.99-.02-.79,50.91Zm-1.97.97l-2.99-.05.82-52.91,2.99.05-.82,52.91Zm-1.97-1.03l.99.02.79-50.91-.99-.02-.79,50.91Zm-1.98.97l-2.99-.05.82-52.91,2.99.05-.82,52.91Zm-1.97-1.03l.99.02.79-50.91-.99-.02-.79,50.91Zm49.17-55.12l-2.62-.04.63-40.46,2.62.04-.63,40.46Zm-1.6-1.03h.62s.6-38.45.6-38.45h-.62s-.6,38.45-.6,38.45Zm-1.6.98l-2.62-.04.63-40.46,2.62.04-.63,40.46Zm-1.6-1.03h.62s.6-38.45.6-38.45h-.62s-.6,38.45-.6,38.45Zm-1.61.98l-2.62-.04.63-40.46,2.62.04-.63,40.46Zm-1.6-1.03h.62s.6-38.45.6-38.45h-.62s-.6,38.45-.6,38.45Zm-1.6.98l-2.62-.04.63-40.46,2.62.04-.63,40.46Zm-1.6-1.03h.62s.6-38.45.6-38.45h-.62s-.6,38.45-.6,38.45Zm-1.6.98l-2.62-.04.63-40.46,2.62.04-.63,40.46Zm-1.6-1.03h.62s.6-38.45.6-38.45h-.62s-.6,38.45-.6,38.45Zm-1.6.98l-2.62-.04.63-40.46,2.62.04-.63,40.46Zm-1.6-1.03h.62s.6-38.45.6-38.45h-.62s-.6,38.45-.6,38.45Zm-1.61.98l-2.62-.04.63-40.46,2.62.04-.63,40.46Zm-1.6-1.03h.62s.6-38.45.6-38.45h-.62s-.6,38.45-.6,38.45Zm-1.61.98l-2.62-.04.63-40.46,2.62.04-.63,40.46Zm-1.6-1.03h.62s.6-38.45.6-38.45h-.62s-.6,38.45-.6,38.45Zm-1.6.98l-2.62-.04.63-40.46,2.62.04-.63,40.46Zm-1.6-1.03h.62s.6-38.45.6-38.45h-.62s-.6,38.45-.6,38.45Zm-1.61.98l-2.62-.04.63-40.46,2.62.04-.63,40.46Zm-1.6-1.03h.62s.6-38.45.6-38.45h-.62s-.6,38.45-.6,38.45Zm-1.6.98l-2.62-.04.63-40.46,2.62.04-.63,40.46Zm-1.6-1.03h.62s.6-38.45.6-38.45h-.62s-.6,38.45-.6,38.45Zm-1.6.98l-2.62-.04.63-40.46,2.62.04-.63,40.46Zm-1.6-1.03h.62s.6-38.45.6-38.45h-.62s-.6,38.45-.6,38.45Zm-1.61.98l-2.62-.04.63-40.46,2.62.04-.63,40.46Zm-1.6-1.03h.62s.6-38.45.6-38.45h-.62s-.6,38.45-.6,38.45Zm-1.61.98l-2.62-.04.63-40.46,2.62.04-.63,40.46Zm-1.6-1.03h.62s.6-38.45.6-38.45h-.62s-.6,38.45-.6,38.45Zm35.25-41.73l-2.14-.03.49-31.37,2.14.03-.49,31.37Zm-1.12-1.02h.14s.46-29.37.46-29.37h-.14s-.46,29.37-.46,29.37Zm-1.13.98l-2.14-.03.49-31.37,2.14.03-.49,31.37Zm-1.12-1.02h.14s.46-29.37.46-29.37h-.14s-.46,29.37-.46,29.37Zm-1.13.98l-2.14-.03.49-31.37,2.14.03-.49,31.37Zm-1.12-1.02h.14s.46-29.37.46-29.37h-.14s-.46,29.37-.46,29.37Zm-1.13.98l-2.14-.03.49-31.37,2.14.03-.49,31.37Zm-1.12-1.02h.14s.46-29.37.46-29.37h-.14s-.46,29.37-.46,29.37Zm-1.13.98l-2.14-.03.49-31.37,2.14.03-.49,31.37Zm-1.12-1.02h.14s.46-29.37.46-29.37h-.14s-.46,29.37-.46,29.37Zm-1.13.98l-2.14-.03.49-31.37,2.14.03-.49,31.37Zm-1.12-1.02h.14s.46-29.37.46-29.37h-.14s-.46,29.37-.46,29.37Zm-1.13.98l-2.14-.03.49-31.37,2.14.03-.49,31.37Zm-1.12-1.02h.14s.46-29.37.46-29.37h-.14s-.46,29.37-.46,29.37Zm-1.13.98l-2.14-.03.49-31.37,2.14.03-.49,31.37Zm-1.12-1.02h.14s.46-29.37.46-29.37h-.14s-.46,29.37-.46,29.37Zm-1.13.98l-2.14-.03.49-31.37,2.14.03-.49,31.37Zm-1.12-1.02h.14s.46-29.37.46-29.37h-.14s-.46,29.37-.46,29.37Zm-1.13.98l-2.14-.03.49-31.37,2.14.03-.49,31.37Zm-1.12-1.02h.14s.46-29.37.46-29.37h-.14s-.46,29.37-.46,29.37Zm-1.13.98l-2.14-.03.49-31.37,2.14.03-.49,31.37Zm-1.12-1.02h.14s.46-29.37.46-29.37h-.14s-.46,29.37-.46,29.37Zm-1.13.98l-2.14-.03.49-31.37,2.14.03-.49,31.37Zm-1.12-1.02h.14s.46-29.37.46-29.37h-.14s-.46,29.37-.46,29.37Z"/>
    </g>
    <path class="cls-2" d="m1002.23,146.35l-.07-9.35-4.46.03-.13-17.93-4.68.03-.11-16.37-9.74.07-.11-15.98-3.51.02.11,15.98-9.75.07.11,16.37-17.15.12.13,17.93-5.07.04.21,30.01h-1.56s-.1-14.02-.1-14.02l-21.04.15.1,14.03-11.95.08.97,138.23,62.88-.44-.04-6.11,16.45-.12.05,6.5,5.8-.04-.05-6.5,3.78-.03-.07-9.35-3.78.03-.09-12.47,3.78-.03-.07-9.35-3.78.03-.09-12.47,3.78-.03-.07-9.35-3.78.03-.09-12.47,3.78-.03-.07-9.35-3.78.03-.09-12.47,3.78-.03-.07-9.35-3.78.03-.09-12.47,3.78-.03-.07-9.35-3.78.03-.09-12.47,3.78-.03-.07-9.35-3.78.03-.09-12.47,3.78-.03Zm-56.27,152.27l-17.93.13-.04-5.46,17.93-.13.04,5.46Zm-.14-19.92l-17.93.13-.04-5.46,17.93-.13.04,5.46Zm-.14-19.92l-17.93.13-.04-5.46,17.93-.13.04,5.46Zm-.14-19.92l-17.93.13-.04-5.46,17.93-.13.04,5.46Zm-.14-19.92l-17.93.13-.04-5.46,17.93-.13.04,5.46Zm-.14-19.92l-17.93.13-.04-5.46,17.93-.13.04,5.46Zm-.14-19.92l-17.93.13-.04-5.46,17.93-.13.04,5.46Zm43.46-55l3.51-.02.09,12.21-3.51.02-.09-12.21Zm-6.24.04l3.51-.02.09,12.21-3.51.02-.09-12.21Zm-6.24.04l3.51-.02.09,12.21-3.51.02-.09-12.21Zm17.54,165.66l-16.45.12-.09-12.47,16.45-.11.09,12.47Zm-.15-21.83l-16.45.11-.09-12.47,16.45-.11.09,12.47Zm-.15-21.83l-16.45.12-.09-12.47,16.45-.12.09,12.47Zm-.15-21.83l-16.45.12-.09-12.47,16.45-.11.09,12.47Zm-.15-21.83l-16.45.11-.09-12.47,16.45-.12.09,12.47Zm-.15-21.83l-16.45.12-.09-12.47,16.45-.12.09,12.47Zm-.15-21.83l-16.45.11-.09-12.47,16.45-.11.09,12.47Zm-16.94.62l-.09-13.47,17.45-.12.09,13.47-17.45.12Zm.91-12.48l.08,11.47,15.45-.11-.08-11.47-15.45.11Z"/>
    <path class="cls-2" d="m206.98,297.02c1.16-.09,8.31-2.62,3.78-7.24-.77-5.71-.16-5.52-2.84-9.6s-6.03-9.23-7.32-14.73c-1.3-5.49-2.47-16.87-5.48-22.9-1.91-7.21-1.29-11.39-1.22-12.28.08-.89,2.33,4.19,2.83,6.91.5,2.72,3.05,14.16,3.35,16.52-.46,2.07.7,4.28,1.23,5.23.44-1.9.4-4.01-.54-5.51-.32-2.19-2.32-12.9-2.42-14.96-.1-2.06.41-12.61-3.02-19.68-3.43-7.07-6.4-14.05-18.43-20.13-12.03-6.08-27.05-.87-33.99,1.52-6.94,2.39-27.75-4.44-34.35-5.01-2.01-.17-2.96,1.11-3.45.98-.49-.13-2.41-3.28-9.2-2.67s-10.09,2.72-12.07,4.26c-2.32-.46-10.84-2.3-14.59,3.1-3.75,5.4-9.48,17.21-10.14,19.04-.66,1.82-6.04,14.43-6.15,19.55-.31,3.65-.18,6.05-11.11,10.67-9.15,2.55-13.02,1.53-12.8,1.97.21.45,6.31,2,13.85-.43,7.54-2.43,9.15-4.6,9.77-4.88-1.23,1.6-8.27,7.49-19.6,9.04-4,.47-6.24.06-6.35.44-.12.37,6.22,1.6,12.18-.11,5.96-1.71,10.31-3.3,12.91-4.66-.06,1.66-.51,10.38-1.73,13.78-1.22,3.4-4.44,14.4-4.64,16.78-.2,2.37-.81,7.45,5.47,8.84,2.85.22,3.85-1.01,2.65-1.4,0,0-2.27.94-2.25.09.74-.73,2.56-.35,1.75-1.39-1.45-.12-3.51-.36-3.62-1.68s-.79-2.52-.03-2.96c.77-.45.79-.73.85-1.35.38-.48.56-.64.55-1.15-.01-.51.71-.39.8-1.47.09-1.07.69-.85.74-1.42.05-.57.64-.91.82-1.7.18-.78.99-1.05,1.04-1.62.05-.57.51-.75.77-1.81s1.04-1.05,1.11-1.84c.07-.79.89-1.92.81-2.84-.09-.92.57-1.43.78-1.87.21-.44.48-1.61.69-2.16.22-.55.6-2.4.99-3.67.39-1.28.07-2.16.33-3.22.26-1.06-.06-3.2.48-4.29.54-1.09.55-5.14,1.01-5.89.46-.76,1.21-5.59,1.43-6.14.22-.55,2.73-4.32,3.32-5.3.81-.33,2.25-.09,4.09-2.55.9-1.97,1.84-.53,3.05-.25,1.21.28,2.12.87,4.22-.09,2.1-.96,2.66-.91,3.33-.8.66.11.87-.32.85-.1-.02.23-.48,4.23-.12,5.34-.16,1.18-.89,3.17,1.55,2.92,2.44-.25,1.37.35,3.83-.81,2.35-.54,1.54-.32,3.37-.62,1.82-.3,4.99-3.16,5.4-2.73,0,0,.36,4.93-.89,9.72s-2.01,9-5.1,13.57c-3.09,4.58-9.83,11.12-10.73,13.15-.9,2.03-2.55,6.1-1.06,8.4,1.49,2.29-1.7,8-1.78,9.59-.08,1.59-.65,3.02,1.8,3.23,2.45.21,7.38-.28,9.31-1.82s2.49-1.5.83-3.8c-1.65-2.31-2.47-3.29-2.55-4.95-.08-1.66.12-3.98,1-5.1.88-1.12,1.8-2.01,2.68-3.07s2.15-1.52,2.65-2.05c.49-.53,2.61-1.66,3.27-2.11.66-.46,6.98-4.81,10.24-4.82.73,2.63,1.99,7.58,2.19,9.13s.84,2.01.78,2.63.05,2.68.39,3.28c.34.6.29,1.9.58,3.01.3,1.11.29,1.22.78,2.06.49.84.17.64.52,1.75s.91,1.84.18,2.52c-.73.68-6.53,4.11-5.66,6.35,1.28,1.42,1.84.16,1.84.16,0,0,1.02,1.23,2.8.7,1.57.02,1.37,1.03,3.95.4,1.7.43,3.98.06,4.3-.43,1.09.44,3.25.11,3.25-1.89s-.51-2.55-1.42-3.03-1.38-1.6-1.33-2.11c.04-.51.9-5.9.24-9.95-.66-4.04-1.14-10.92-1.11-11.94s-.34-9.09.24-10.57c.58-1.49.64-2.22,2.08-1.99,1.44.24,6.12-.04,6.68,0,.56.05,5.84,1.3,7.55,2.3,1.71,1,6.6,2.96,12.4,3.97,5.81,1.01,13.46-1.18,15.11-.75,1.65.43,1.35,5.19,1.35,5.87,0,.68-.22,8.47-1.2,10.72-.98,2.25-3.07,8.91-6.02,11.27-2.95,2.37-8.4,4.92-5.58,6.75,2.82,1.84,4.18,1.61,4.92,1.56.73-.05,2.88.48,3.74.21.87-.27,5.3.46,6.12.01.82-.44,3.14.1,2.87-2.72-.26-2.81.83-5.11.85-6.59.01-1.48.69-6.78,1.23-7.81.54-1.04,1.19-2.69,1.32-3.65.14-.96.61-2.51,1.25-3.48.64-.97.87-2.26,1.29-3.19s2.43-4.06,3-4.87,2.14-2.72,2.14-2.72c0,0,7.7,3.23,8.73,3.6s5.29,3.82,6.32,7.44c1.04,3.62,5.77,12.52,5.21,14.46-.56,1.95-1.7,3.5-3.08,4.52-1.38,1.02-1.37,2.9-.62,3.31.75.41,7.86.96,11.64.66Z"/>
    <g>
      <path class="cls-2" d="m745.12,233.85c-.33-1.11-4.5-8.37-5.79-11.06-1.29-2.69-4.46-6.85-5.45-9.51-.42-1.13-.74-2.18-.97-3,.86.06,2.77-3.86,3.32-5.63.57-1.79.52-3.56.76-5.01,1.92-1.94,3.17-3.78,4.45-6.83,1.28-3.05.32-3.51-.1-5.68-.42-2.16-3.98-9.85-4.62-12.6-.14-2.35-1.86-5.55-2.15-6.22-.25-.85-.61-1.67-1.43-2.53-1.33.11-2.14-.77-2.95-1.36-.81-.59-2.91-.92-3.98-.88-.71.02-.91-.3-1.25-.55.07-.42.29-1.03,1-.94,1.08.15,1.33-.54,1.33-.54,0,0-1.47-1.03-1.82-2.11.74.59,1.23.1,2.61.29-.74-.44-3.54-2.75-4.18-4.08.93,1.03,2.01,1.52,3.34,2.11-.84-.89-1.57-3.05-3.32-4.4,1.5-.07,3.97,2.07,4.12,2.2-.08-.14-1.44-2.29-5.08-4.71-3.76-2.51-3.93-7.59-7.91-10.64-3.98-3.05-8.06-1.43-9.39-.1-1.33-.79-1.92.2-2.41,1.03-.74-.1-1.52-.79-2.9,1.97-.34,3.19,1.4,8.14,1.4,8.14h.02c.11.57.27,1.3.5,2.35.32,2.75,1.06,3.53,1.8,4.42.74.88.83,1.44,1.47,2,.64.55.5.87.96,1.93.45,1.06,1.65.85,2.48.77.83-.07.62.15.79.94.15.74-1.31,1.47-1.48,1.56h0s0,0,0,0h0s0,0,0,0c-1.03.56-5.06,3.28-6.97,4.38-2.06.07-2.91,2.4-3.32,2.62-.41.22-1.99.29-1.77,1.95.02.12.04.25.08.39-.36.64-1.32,2.27-3.25,4.92-2.56,3.51-7.86,8.72-8.87,8.92-1.55-.22-4.55.66-6.09,1.5-1.55.83-6.19,2.24-10.17,2.24-2.73-3.22-3.83-.57-3.64.71-2.46.47-2.16,1.89-1.87,2.11-.49.39-.42,1.28-.07,1.75-.76,1.06.34,1.87.74,2.16-.32.52-.47,1.08.17,1.57-.42.86.32,1.06,1.28,1.28-.2.44-1.33,3.73-1.65,4.42-.32.69-1.33,3.59-1.57,3.76-.25.17-.1.25-2.16-.12-2.06-.37-1.57.32-4.2,0-2.65-.76-4.4.05-5.45.59-.13.07-.24.11-.33.15-.05-.04-.09-.05-.09-.05l.04.07c-.63.23-.54-.2-.77-.71,1.25-.66,1.72-2.06,2.04-2.87.32-.81.42-4.42.59-5.06.17-.64,1.77-5.65-.91-8.21-2.68-2.56-3.46-1.77-3.56-2.29,2.19,0,3.56-2.09,1.74-2.75s-2.48,1.72-3.51,2.38c-.42-1.2-1.89-3.49-3.44-1.89-1.55,1.6,1.5,2.16,2.51,2.33,1.01.17.84.76-1.65,1.06-2.97-.2-4.2,3.1-5.06,5.73-1.42,2.09-.66,4.3-.66,4.3.02-1.45.79-2.41,1.23-2.65-.07.59-.98,1.42-.59,4.32.39,2.9,1.67,2.75,2.21,3.69.1-1.06-.32-1.25-1.06-3.07-.62-1.54.14-1.93.39-2.02-.11.07-.26.36,0,1.55.37,1.65.77,1.8,1.15,1.47.31,1.25.55,1.79.87,2.29-.15.4-.31.7-1.15,1.08h-.09s0,0,.02.03c-.31.14-.72.28-1.24.44-2.06-.33-3.72.85-4.64,2.14-1.01,1.14-1.03,2.21-1.25,2.78-.22.57-.28.52-.9,1.31-.61,1-.92,1.14-1.14.72-.22-.42-.41-1.9-.41-1.9,0,0,0-.09.46-.68.7-1.44.22-3.57.55-4.39.33-.81,1.03-.99.4-2.62-.63-1.62-2.21-3.28-2.87-5.6-.66-2.32-1.44-3.06-2.1-4.13-.66-1.07-3.06-5.97-3.98-7.92-.92-1.95-2.76-6.34-3.91-8.15-1.14-1.81-3.97-5.81-4.5-6.6-.53-.79-.48-.92-.42-1.06-.42-.76-1.06-1.18-1.3-2.97-.25-1.79-1.35-2.55-1.62-4.27-.27-1.72-.79-2.24-1.16-4.13-.37-1.89-.86-2.78-1.3-4.64-.44-1.87-.59-1.25-.74-3.1-.62-1.87-2.65-1.77-3.42-3.37-.76-1.6-2.16-1.96-2.16-1.96-.07-1.28-1.16-1.65-1.35-2.06-.2-.42-.98-2.19-.79-3.22.2-1.03,1.65-.66,3.07.93,1.42,1.6,2.55,1.08,2.8.22.25-.86.69-.86,1.43-.76.74.1.39-1.4.39-1.4,0,0,.1-.12.74.1.93.52,1.11-.86,1.42-1.23.32-.37.44.54,1.7.3,1.25-.25.64-3.76,1.55-4.52,1.28-.96,1.13-1.65,1.13-2.09s.71-1.52,1.28-2.02c.57-.49,1.97-1.77,1.99-2.78-.42.54-.74.49-.74.49.18-.33,1.01-1.95.29-2.83.18.85-.41,1.55-.41,1.55,0,0-1.03-6.12-4.5-8.4-3.46-2.28-5.57-1.92-7.22-1.77-1.55,0-4.24,1.51-5.82,3.69-1.58,2.17-1.99,4.2-2.58,5.68-.59,1.47-2.43,4.5-2.58,5.01-.15.52-2.76,1.7-3.13,1.84-.37.15-1.33-.66-1.47-.99-.15-.33-.22,1.11-1.29,1.47-1.07.37-1.7.48-2.51,1.14-.44-.11-.74,0-2.14,0s-1.03.11-3.5-.11c-2.4-.7-2.76.44-3.83.22-1.07-.22-1.66-.26-2.84.44-2.4,1.99-6.38,7.37-7.22,8.59-.85,1.22-3.32,4.24-4.06,5.9-.74,1.66-2.47,3.94-2.47,3.94,0,0,.33.29.88.48-.81,1.18-2.69,5.38-3.72,7.67-1.03,2.28-1.25,6.6-1.51,9.51-.26,2.91.81,5.49.63,8.62-.18,3.13.15,3.98-.07,5.2-.22,1.22-.92,3.69-.7,7.41.22,3.72,2.18,5.57,3.13,6.3.87.67.46-.57.37-.81.09.23.56,1.32,1.31,1.61.69.26.33-.72.18-1.08.18.39.77,1.51,1.42,1.2.77-.37-.07-1.11-.26-2.03.22.74.77,1.59,1.33.66.55-.92-.37-4.05-.81-5.38-.44-1.33-.7-2.8-.7-2.8,0,0,.41.07,1.29-.44-.04,3.28,1.92,4.57,1.92,4.57,0,0-.44.52-.48,2.25-.15,3.83.66,4.42.15,8.55-.52,4.13,1.18,11.13,1.11,15.33-.07,4.2,1.03,13.05,1.47,15.11.44,2.06,0,6.93.3,11.72.29,4.79,1.01,6.49,1.55,8.45.54,1.97,1.18,5.7,1.03,8.01-.15,2.31.25,2.02-.64,4.91-.88,2.9.49,4.87.39,6.19-.1,1.33-.25,2.11.84,3.34,1.08,1.23-.1.93.64,4.96,1.33,4.03,7.32-.05,8.7-1.43,1.6,2.58,7.72,1.57,10.1,1.03,2.38-.54-.62-2.41-1.3-2.8-.69-.39-1.52-2.78-1.57-4.6-.05-1.82-1.01-2.51-1.38-3.32-.37-.81,4.2-.81,4.79-1.62.59-.81,1.11-3.69,1.03-7-.07-3.32,1.11-8.99,1.18-11.5.07-2.51,1.33-4.05,1.77-7.37.44-3.32,1.99-7.37,1.99-9.29s.81-3.46,1.62-7c.81-3.54,1.11-6.93,1.11-8.92s-.1-4.45-.1-5.85-.27-9.26-.27-11.22-.41-4.79-.77-7.3c-.02-.14-.04-.26-.06-.38,0,0,0,0,0,0-.39-2.07-1.08-1.74-1.08-5.4,0-3.87-.63-2.25-.7-3.39s-.44-1.58-.88-2.47c-.44-.88,1.29-2.25.88-3.32-.4-1.07-.29-1.36.41-2.8s-.29-3.43-.18-4.2c.11-.77,1.18-1.58,1.44-3.13.63-1.18,1.33-3.21,1.25-4.13,1.03.11,1.87-1.43,1.87-1.43,0,0,.2,1.18,1.42,2.8,1.23,1.62,1.38,5.7,1.38,5.7,0,0,.59-.34,2.31-.74.64,1.13.49,2.6,5.06,8.21,2.51,6.34,5.75,10.22,9.48,13.66,3.74,3.44,4.2,5.77,4.2,5.77-1.2,1.15-.44,2.53-.54,3.19-.1.66-.93,2.41-.54,3.91.39,1.5,2.24-.93,2.24-.93l-.12,1.35c-.37.52,0,1.82,0,1.94-.05.93,1.16,1.01,1.16,1.01,0,0-.07.27-.12,1.03,0,1.03.22,2.51.37,4.61.15,2.1,1.18,3.39,1.66,4.83.48,1.44,2.25,1.99,3.65.96,1.4-1.03,3.32-4.35,3.47-4.42.15-.07.02.49-1.75,5.21-1.08,5.5-2.16,16.9-2.16,18.82s-1.77,3.17-1.92,5.75c-.02.32-.07.62-.14.88h0c-.52,1.89-2.2,2.66-2.14,4.79.07,2.43.66,1.92,4.79,3.02,4.13,1.1,1.77,1.1,2.14,2.14.37,1.03,2.06.96,4.94.44-.07,1.62.39,3.17.39,3.91s-1.57,3.44-1.67,4.28c-.1.83-1.03,1.72-1.47,1.47-.44-.25-1.67-.1-2.16,2.06-.49,2.16-1.28,1.97-1.72,3.78-.44,1.82.84,1.57,2.46,3.49,1.62,1.92,3.88.59,6.29.59s-.25-2.46-.49-3.59c-.25-1.13-.64-3.69-.64-4.03s1.03-.93,1.77-2.06c.44.79.69,2.01.74,3.93.05,1.92,1.23,4.82,1.47,6.19s.88,1.87,3,1.33c2.11-.54,2.6-2.16,2.41-3.64-.2-1.48,1.38-1.92.84-4.42-.54-2.51-3.34-1.92-3.49-2.06-.15-.15-.44-1.38-.64-1.87-.2-.49-.05-2.31-.15-3.83.88-1.03,2.16-4.77,3-6.34,1.08-.15,3.1-.74,3.39-.79.08-.01.15-.15.26-.35.03,0,.06,0,.08,0l-.07-.03c.29-.51.86-1.34,2.58-1.2,1.67,1.92,6.34.54,6.34-.05s-1.08-6.39-1.57-10.12c-.49-3.73-4.46-21.52-4.76-23.18-.29-1.66-1.84-5.9-2.03-6.56-.18-.66.11-2.36.52-2.51.41-.15,3.98.15,7.3-.44,3.32-.59,4.75-2.28,4.83-3.06.07-.77.59-2.54,1.07-3.5.48-.96.55-4.46.66-5.31.11-.85.11-2.58.15-3.72.81-.63.48-.37,1.44-1.81,11.13,1.33,15.92-.88,16.99-1.11,1.07-.22,7.46-4.15,8.51-5.1,1.05-.96,4.37-4.11,5.88-5.68.76-.79,1-1.29,1.05-1.59.22.28-.18-1.04.63-.27,0,3.13,1.36,5.05,1.36,6.12s-.48,5.27-.92,6.97c-.44,1.7-.52,2.99-.81,4.53-.63,1.11-.59,1.99-.96,3.1-.35,1.06-.33,1.71.72,1.86.05,2.07-.72,5.77-1.38,9.12-.74,3.76-.66,12.75-.59,17.98.07,5.23-.52,7.08-.52,7.08,0,0,1.55-.81,4.5.3,1.95.73,2.74.62,3.77.24.44,1.64,1.19,4.54,1.49,6.2.44,2.41-.69,9.04-.39,11.65.29,2.6,3.29,11.84,3.73,13.76.14.61.41,1.35.71,2.12-.07.56-.16,1.27-.24,1.64-.15.66-1.07,2.25-.89,3.35.18,1.1.52,1.44.11,3.13-.41,1.7.59,3.58,1.44,3.72.43.08.78.24,1.06.26-.19,1.14-.19,2.29.41,3.02,1.18,1.43,2.9,3.59,7.86,2.16,3.78-1.57-.2-2.06-.2-4.72-.39-2.06-1.48-3.29-1.48-5.06s-.98-3.54-1.28-5.16c-.13-.71-.18-2.36-.16-4.21.62-.83,1.99-2.73,2.98-4.61,1.33-2.51,2.8-4.75,3.32-6.52.52-1.77,1.4-4.72,1.88-7.11.48-2.4.7-4.31,1.11-5.97.32-1.31,1.72-6.58,2.3-8.73,4.76,1.17,14.54-5.16,14.21-6.27Zm-30.26,50.35c-.06.24-.14.52-.23.84l-1.56-9.12c.55,1.33,1.09,2.6,1.2,3.26.2,1.23.93,3.64.59,5.01Zm15.88-101.72c.39.74,2.55,4.83,3.53,6.08,1.08,1.38.71,1.45.39,3.07s-2.01,5.41-2.48,5.77c-.47.37-.17.15-.86.61-1.54-5.02-.61-14.58-.58-15.54Zm-2.44,18.3c.68-.85,1.35-1.37,2-1.89-1.07.92-1.65,1.48-2,1.89Zm.55,7.37h-.14c.25-.33.51-.75.76-1.18-.21.39-.43.79-.62,1.18Zm.95-1.77c.37-.67.68-1.27.83-1.46-.07.18-.42.75-.83,1.46Zm1.85.75c-.33.42-.6.82-.82,1.19h-.06c.95-1.33,1.79-2.86,1.85-2.95,0,.05-.08.46-.97,1.76Zm.86,1.5c.61-.87,1.2-1.79,1.53-2.25-.1.66-1.06,2.26-1.32,3.2-.11-.43-.18-.76-.21-.94Z"/>
      <path class="cls-2" d="m719.48,293.18c-2.97,0-4.35-1.66-5.26-2.76-.58-.7-.78-1.67-.62-3-.03,0-.07-.02-.1-.03-.15-.05-.31-.1-.49-.13-.44-.08-.87-.42-1.23-.96-.48-.73-.92-2.05-.61-3.37.28-1.18.18-1.59.03-2.21-.05-.21-.11-.44-.15-.72-.15-.91.29-2,.62-2.8.12-.3.24-.58.27-.74.06-.26.13-.77.22-1.47-.35-.9-.56-1.54-.68-2.07-.15-.64-.6-2.16-1.13-3.93-1.08-3.62-2.42-8.12-2.62-9.88-.14-1.28.03-3.38.22-5.61.2-2.36.4-4.8.18-6-.27-1.48-.91-3.99-1.34-5.65-.87.25-1.91.22-3.6-.41-.97-.36-1.89-.55-2.71-.55-.9,0-1.38.23-1.38.23l-1.05.52.34-1.11s.56-1.87.49-6.92c-.08-6.02-.11-14.45.6-18.09l.17-.88c.57-2.89,1.16-5.87,1.2-7.75-.33-.11-.58-.29-.73-.55-.33-.54-.17-1.25.04-1.87.13-.39.21-.75.28-1.1.13-.63.27-1.28.68-2.01.1-.54.17-1.04.25-1.55.13-.91.27-1.84.56-2.94.43-1.66.91-5.84.91-6.84,0-.31-.18-.8-.39-1.37-.33-.92-.77-2.11-.92-3.63-.2.33-.49.69-.87,1.09-1.56,1.62-4.91,4.79-5.9,5.7-1.05.96-7.5,4.97-8.75,5.22-.13.03-.32.09-.57.17-1.32.41-4.42,1.37-9.86,1.37-2,0-4.16-.13-6.41-.39-.18.27-.3.47-.39.62-.29.47-.35.56-.8.91,0,.26-.01.54-.02.82-.02,1.02-.04,2.08-.13,2.71-.03.22-.05.62-.09,1.11-.12,1.88-.26,3.62-.63,4.35-.46.92-.95,2.62-1.02,3.33-.1,1.09-1.8,2.89-5.24,3.5-2.26.4-4.65.4-5.94.4h-.23c-.32,0-.79,0-.99.02-.18.31-.39,1.43-.26,1.91.05.18.21.64.41,1.24.56,1.65,1.41,4.14,1.62,5.37.09.5.53,2.57,1.1,5.19,1.32,6.13,3.32,15.41,3.66,18.01.26,2,.69,4.58,1.04,6.66.36,2.17.54,3.22.54,3.53,0,1.01-2.64,1.53-4.05,1.53-1.31,0-2.35-.34-3.02-1-.79-.03-1.26.18-1.55.47l1.22.44-1.72.3c-.12.19-.26.33-.48.37-.08.01-.32.08-.65.16-.71.19-1.73.46-2.5.59-.29.58-.63,1.39-.98,2.24-.62,1.49-1.27,3.03-1.83,3.8.03.59.03,1.22.03,1.79,0,.67,0,1.5.07,1.7.09.21.19.55.29.89.06.21.15.5.22.69h.03c.77,0,3.1.02,3.62,2.43.35,1.63-.11,2.51-.48,3.22-.24.45-.41.78-.35,1.24.28,2.11-.76,3.67-2.78,4.19-.61.16-1.1.23-1.52.23-1.56,0-1.94-1.12-2.09-1.96-.08-.47-.3-1.17-.52-1.91-.43-1.44-.93-3.06-.96-4.35-.03-1.26-.15-2.23-.37-2.95-.27.3-.53.55-.74.75-.14.14-.32.3-.39.39.04.49.38,2.75.62,3.85.06.26.36.73.63,1.15.58.91,1.13,1.76.76,2.45-.32.59-1.12.59-1.38.59-.68,0-1.37.12-2.04.23-.66.11-1.29.22-1.91.22-1.16,0-2.02-.39-2.72-1.21-.55-.65-1.06-1.04-1.48-1.35-.78-.59-1.44-1.1-1.08-2.58.23-.95.56-1.42.87-1.86.31-.45.61-.87.85-1.91.54-2.36,1.87-2.54,2.27-2.54.23,0,.45.05.62.15.12-.04.67-.56.73-1.09.05-.45.36-1.14.86-2.22.32-.69.8-1.73.8-2,0-.23-.06-.61-.14-1.05-.11-.65-.24-1.43-.26-2.26-1.13.19-1.94.27-2.58.27-.47,0-1.91,0-2.32-1.14-.19-.54.05-.93.22-1.16-.23-.12-.76-.32-2.01-.66-.87-.23-1.58-.39-2.16-.52-2.2-.5-2.94-.66-3.01-2.97-.04-1.4.58-2.28,1.18-3.13.4-.57.78-1.11.98-1.81l.02-.08c.06-.22.09-.45.11-.7.08-1.46.64-2.51,1.13-3.45.42-.79.78-1.48.78-2.27,0-2.02,1.1-13.48,2.17-18.92.31-.82.57-1.54.8-2.16-.56.75-1.18,1.47-1.73,1.88-.56.41-1.2.63-1.84.63-1.19,0-2.2-.72-2.57-1.83-.15-.44-.36-.88-.58-1.34-.47-.98-1-2.1-1.11-3.61-.06-.9-.14-1.69-.21-2.37-.09-.93-.16-1.66-.16-2.27.02-.26.04-.47.06-.64-.55-.18-1.13-.6-1.09-1.43l-.02-.05c-.12-.59-.21-1.24-.07-1.75-.33.26-.7.45-1.04.45-.22,0-.76-.08-.96-.86-.33-1.25.08-2.58.35-3.47.08-.27.15-.49.18-.64.02-.11-.02-.33-.06-.55-.12-.71-.29-1.75.53-2.71-.23-.65-1.1-2.62-3.98-5.27-3.21-2.95-6.85-6.9-9.58-13.77-3.54-4.35-4.28-6.27-4.71-7.42-.07-.17-.12-.32-.18-.46-1.3.32-1.78.59-1.79.59l-.71.4-.03-.82c-.04-1.09-.35-4.19-1.27-5.42-.6-.79-.97-1.49-1.19-2.02-.31.34-.72.68-1.21.8-.11,1.14-.74,2.84-1.26,3.83-.18.96-.62,1.64-.98,2.19-.22.34-.41.63-.44.84-.02.18.07.59.16.98.22.96.52,2.27-.02,3.37-.67,1.37-.72,1.52-.39,2.41.29.76-.13,1.51-.5,2.18-.22.4-.5.89-.4,1.09.08.17.17.32.24.47.34.63.63,1.17.69,2.2,0,.14.03.19.03.19.4.25.67.64.67,3.23,0,2.26.26,2.89.56,3.62.14.34.3.72.43,1.28h.01l.08.41c.02.13.04.26.07.4.33,2.25.78,5.31.78,7.37,0,1.05.08,3.89.15,6.39.06,2.15.12,4.18.12,4.83s.02,1.49.04,2.42c.03,1.12.06,2.34.06,3.43,0,2.01-.29,5.44-1.12,9.03-.32,1.39-.63,2.46-.91,3.39-.41,1.39-.7,2.4-.7,3.5s-.41,2.62-.9,4.43c-.42,1.57-.89,3.36-1.1,4.92-.22,1.65-.64,2.89-1.01,3.98-.39,1.14-.72,2.12-.76,3.34-.03,1.07-.26,2.71-.5,4.45-.34,2.41-.72,5.13-.68,7.03.07,3.24-.4,6.31-1.13,7.31-.37.51-1.34.71-2.89.98-.56.1-1.36.23-1.73.37.07.12.16.25.26.39.42.61,1,1.45,1.04,2.89.05,1.87.92,3.94,1.32,4.17.98.56,2.6,1.65,2.45,2.69-.08.51-.51.86-1.28,1.03-.88.2-3.18.67-5.43.67s-3.94-.49-4.84-1.45c-1.23,1.04-4.04,2.93-6.29,2.93-1.4,0-2.37-.72-2.82-2.08-.4-2.15-.28-3.14-.21-3.74.06-.53.07-.6-.33-1.05-1.15-1.3-1.07-2.25-.98-3.45l.02-.26c.03-.37-.1-.86-.25-1.44-.31-1.19-.74-2.82-.12-4.86.6-1.95.59-2.37.58-3.22,0-.39,0-.86.04-1.58.15-2.3-.52-6.04-1.02-7.84-.08-.31-.17-.61-.27-.92-.49-1.66-1.05-3.55-1.3-7.64-.14-2.23-.12-4.47-.1-6.44.02-2.23.04-4.15-.19-5.2-.46-2.13-1.56-10.96-1.48-15.22.03-1.79-.26-4.08-.57-6.51-.41-3.18-.83-6.48-.53-8.88.28-2.28.16-3.41.02-4.72-.11-1.03-.23-2.09-.16-3.79.02-1.06.19-1.72.35-2.1-.55-.52-1.57-1.74-1.76-3.91-.08.03-.16.06-.23.08.11.54.31,1.41.58,2.23.57,1.7,1.42,4.71.76,5.79-.22.37-.47.54-.68.61,0,.13,0,.25-.05.38-.09.25-.27.44-.55.57-.4.19-.84.09-1.18-.18-.2.16-.49.2-.81.07-.33-.13-.61-.36-.85-.63-.26.12-.57.06-.96-.24-1.4-1.08-3.12-3.11-3.33-6.67-.19-3.21.29-5.51.58-6.89.05-.24.1-.46.13-.64.1-.53.08-.99.05-1.68-.03-.76-.08-1.8.02-3.46.09-1.49-.12-2.88-.33-4.23-.21-1.41-.44-2.87-.3-4.41l.1-1.23c.23-2.84.52-6.38,1.45-8.44l.17-.37c.99-2.18,2.42-5.35,3.28-6.86-.29-.16-.46-.31-.49-.33l-.35-.31.28-.37s1.71-2.26,2.41-3.84c.56-1.26,2.05-3.23,3.14-4.67.4-.52.74-.98.97-1.31.85-1.23,4.84-6.63,7.31-8.68,1.32-.8,1.99-.81,3.26-.55.27.05.48-.03.8-.14.37-.14.83-.32,1.52-.32.47,0,.98.08,1.55.25,1.7.14,1.97.12,2.47.11.22,0,.48-.02.89-.02.58,0,.96-.02,1.25-.03.34-.02.56-.02.76,0,.65-.49,1.22-.67,1.92-.9.17-.06.35-.11.55-.18.47-.16.68-.69.81-1,.09-.23.22-.55.6-.55h.32l.18.35c.1.2.71.69.92.72.62-.26,2.53-1.21,2.77-1.55.05-.21.36-.77.94-1.83.58-1.06,1.31-2.38,1.63-3.18.14-.36.27-.75.41-1.16.44-1.3.99-2.92,2.23-4.62,1.75-2.4,4.6-3.89,6.23-3.89l.26-.03c.44-.04.94-.09,1.48-.09,1.19,0,3.09.2,5.76,1.97,1.91,1.26,3.11,3.56,3.82,5.49l1.2,1.47c.33.41.43.9.4,1.39l.2-.25-.04,1.52c-.02.86-.75,1.92-2.16,3.14-.53.46-1.09,1.38-1.1,1.64v.11c.02.65-.06,1.43-1.33,2.38-.23.2-.34,1.13-.41,1.81-.14,1.28-.29,2.6-1.34,2.8-.79.15-1.24-.06-1.53-.24-.02.04-.04.08-.05.11-.21.47-.52,1.18-1.26,1.18-.18,0-.36-.04-.54-.13.01.35-.03.75-.25,1.01-.16.2-.39.31-.66.31h-.13c-.16-.03-.31-.05-.44-.05-.2,0-.31,0-.44.44-.2.71-.8,1.18-1.53,1.18-.48,0-1.24-.21-2.13-1.2-.83-.93-1.61-1.35-2.01-1.35-.13,0-.17.02-.2.17-.13.69.32,2,.75,2.91.03.04.16.15.26.24.36.31.94.8,1.1,1.68.52.22,1.53.8,2.15,2.11.29.61.82.92,1.43,1.29.76.45,1.62.97,2.01,2.14l.02.12c.08,1.02.16,1.22.29,1.58.1.27.25.65.43,1.45.19.82.4,1.45.6,2.06.26.79.5,1.53.71,2.6.17.88.38,1.45.58,2,.22.62.44,1.21.58,2.14.12.75.42,1.31.74,1.9.37.67.74,1.37.88,2.38.17,1.22.52,1.72.86,2.21.14.19.27.38.38.59l.12.22-.1.22s.09.16.37.58c.15.22.48.7.91,1.32,1.1,1.59,2.77,3.99,3.59,5.29.86,1.35,2.06,4.05,3.03,6.21.35.77.66,1.47.9,1.99.89,1.88,3.3,6.82,3.95,7.87.14.23.29.44.44.66.55.8,1.18,1.71,1.72,3.59.37,1.3,1.04,2.37,1.69,3.41.46.74.9,1.44,1.17,2.15.52,1.34.25,1.92-.15,2.54-.09.13-.18.27-.25.45-.1.24-.1.79-.1,1.33,0,.95,0,2.13-.47,3.09l-.06.09c-.19.25-.29.39-.34.47.06.46.17,1.02.26,1.35.08-.11.2-.27.35-.53.21-.28.35-.44.45-.56.25-.3.28-.33.41-.67.05-.13.09-.28.13-.46.15-.61.38-1.53,1.22-2.48,1.04-1.46,2.67-2.36,4.32-2.36.22,0,.44.01.66.04.21-.07.4-.13.57-.19l-.21-.39.63.08-.29-.49c-.12-.2-.3-.35-.54-.53-.57-.45-1.34-1.05-1.68-2.95l-.68-1.96c-.03-.1-.81-2.43.68-4.68.77-2.34,2.09-6.23,5.55-6,.41-.05.73-.11.98-.17-1.21-.25-2.46-.66-2.75-1.54-.11-.34-.11-.89.51-1.53.45-.46.94-.7,1.46-.7,1.15,0,2.03,1.14,2.51,2.09.12-.14.24-.31.37-.47.56-.74,1.25-1.67,2.36-1.67.25,0,.51.05.78.15.85.31,1.28.95,1.15,1.7-.11.63-.66,1.29-1.49,1.68.57.29,1.33.81,2.34,1.76,1.78,1.7,2.17,4.75,1.08,8.58l-.03.12c-.06.22-.12,1.05-.18,1.79-.12,1.63-.23,2.82-.43,3.33l-.07.18c-.28.72-.72,1.85-1.66,2.6l.08.04s.05-.02.08-.04c.97-.5,2.07-.96,3.58-.96.72,0,1.47.11,2.24.33.38.04.77.07,1.1.07.45,0,.73-.05,1-.1.49-.09,1.07-.15,2.04.02.89.16,1.48.26,1.71.26.16-.19.64-1.46.93-2.22.23-.6.43-1.14.55-1.39.18-.38.65-1.69,1.02-2.73.15-.43.3-.82.41-1.13-.49-.14-.93-.34-1.13-.75-.1-.22-.12-.46-.06-.73-.32-.36-.52-.87-.22-1.58-1.02-.9-.99-1.71-.69-2.3-.26-.55-.27-1.27.04-1.79-.09-.25-.11-.54-.04-.82.1-.45.51-1.24,2-1.63.02-.57.2-1.26.62-1.75.86-1,2.28-.73,3.76.93,3.87-.05,8.29-1.41,9.71-2.17,1.56-.84,4.59-1.76,6.29-1.57.94-.38,5.84-5.04,8.51-8.7,1.72-2.37,2.67-3.92,3.12-4.7-.02-.09-.03-.17-.04-.26-.24-1.76,1.18-2.19,1.78-2.37.1-.03.19-.05.25-.08.01-.02.14-.21.25-.37.52-.77,1.46-2.17,3.16-2.3,1.01-.59,2.56-1.59,3.94-2.48,1.31-.85,2.44-1.58,2.94-1.85l.07-.03c.78-.39,1.22-.84,1.18-.99-.04-.19-.06-.35-.08-.49,0-.02,0-.04,0-.06-.07,0-.12,0-.17,0l-.2.02c-.25.02-.53.05-.8.05-1,0-1.67-.39-1.99-1.14-.16-.38-.25-.66-.33-.9-.13-.42-.18-.57-.5-.84-.41-.36-.63-.71-.86-1.09-.18-.29-.36-.59-.67-.96l-.09-.11c-.74-.88-1.5-1.78-1.82-4.57-.21-.95-.37-1.64-.48-2.2l-.02-.05c-.07-.21-1.77-5.09-1.42-8.36l.05-.17c.84-1.67,1.59-2.39,2.5-2.39.22,0,.42.04.6.08.38-.6.89-1.26,1.76-1.26.26,0,.53.06.81.19.96-.8,2.67-1.53,4.61-1.53,1.83,0,3.57.62,5.16,1.84,2.07,1.58,3.13,3.65,4.16,5.66,1,1.94,1.94,3.77,3.72,4.96,3.81,2.54,5.17,4.78,5.23,4.87l1.62,2.71-2.38-2.07c-.46-.41-1.25-1.02-2.04-1.47.42.57.76,1.14,1.07,1.66.32.54.6,1.01.86,1.29l1.71,1.81-2.28-1.01c-.07-.03-.14-.06-.22-.1.65.56,1.24,1.01,1.51,1.17l2.13,1.27-2.45-.35c-.52-.07-.89-.04-1.21-.01-.09,0-.17.01-.24.02.37.41.81.76,1.02.91l.31.22-.13.36c-.13.37-.64,1.04-1.87.87-.12,0-.27,0-.37.25.18.15.31.24.61.24h.24c1.11,0,3.18.31,4.11.98.15.11.29.22.44.34.66.52,1.28.99,2.17.93l.24-.02.16.17c.95.98,1.32,1.93,1.55,2.73.02.04.1.2.2.4.55,1.15,1.85,3.84,1.98,5.93.3,1.27,1.36,3.89,2.38,6.43,1.03,2.57,2.01,4.99,2.23,6.11.1.54.24.96.37,1.37.4,1.22.71,2.18-.31,4.6-1.22,2.92-2.48,4.86-4.44,6.87-.07.45-.11.92-.16,1.42-.1,1.07-.21,2.28-.6,3.51-.2.62-1.8,4.75-3.2,5.76.25.87.53,1.73.84,2.55.54,1.45,1.78,3.4,2.98,5.29.97,1.53,1.88,2.97,2.46,4.18.57,1.19,1.72,3.3,2.83,5.35,1.73,3.19,2.8,5.16,2.98,5.78.12.4-.16.78-.25.9-1.26,1.69-8.47,6.15-13.15,6.15h0c-.33,0-.64-.02-.93-.06-.56,2.08-1.87,7.02-2.17,8.27-.22.92-.39,1.9-.58,3.05-.15.89-.31,1.85-.52,2.9-.44,2.2-1.22,4.88-1.74,6.65l-.15.5c-.38,1.3-1.21,2.76-2.16,4.46-.39.69-.8,1.41-1.19,2.16-.98,1.85-2.31,3.71-2.93,4.55-.02,1.83.04,3.33.15,3.95.11.6.32,1.24.55,1.91.36,1.08.74,2.19.74,3.34,0,.89.31,1.64.67,2.51.29.7.62,1.5.8,2.46,0,.97.56,1.59,1.06,2.13.46.51.9.99.76,1.62-.13.57-.68,1.01-1.91,1.53-1.18.34-2.22.5-3.14.5Zm-4.75-6.62h.02s-.09.56-.09.56c-.21,1.24-.11,2.13.3,2.62.92,1.12,2.03,2.45,4.53,2.45.83,0,1.78-.15,2.81-.45,1.17-.49,1.26-.77,1.27-.8.03-.12-.3-.49-.52-.73-.55-.61-1.31-1.44-1.31-2.71-.16-.77-.45-1.48-.73-2.17-.38-.93-.74-1.8-.74-2.89,0-.99-.35-2.02-.68-3.02-.23-.67-.46-1.37-.58-2.05-.13-.71-.19-2.32-.17-4.3v-.16s.1-.13.1-.13c.55-.74,1.94-2.65,2.94-4.55.4-.75.81-1.48,1.21-2.18.89-1.58,1.73-3.06,2.07-4.25l.15-.5c.51-1.75,1.29-4.41,1.72-6.56.21-1.04.37-2,.51-2.87.2-1.16.36-2.17.6-3.12.32-1.32,1.71-6.55,2.3-8.74l.13-.47.48.12c.35.08.74.13,1.17.13h0c4.68,0,11.88-4.71,12.41-5.85-.26-.7-1.65-3.25-2.88-5.51-1.12-2.06-2.27-4.18-2.86-5.39-.55-1.15-1.45-2.57-2.4-4.07-1.22-1.93-2.49-3.93-3.07-5.47-.24-.65-.47-1.32-.68-2.01l-.03.1-.45-1.82h0s-.01-.05-.01-.05c-.11-.44-.18-.77-.22-.96l-.04-.21.12-.18c.33-.47.65-.95.93-1.37.24-.36.45-.67.6-.89l1.22-1.7-.32,2.07c-.06.41-.34,1-.67,1.69-.22.47-.45.95-.59,1.33.7-.87,1.94-3.28,2.48-4.97.35-1.12.46-2.23.55-3.3.05-.58.11-1.13.19-1.65l.03-.16.11-.11c1.96-1.98,3.13-3.79,4.34-6.67.87-2.08.63-2.8.28-3.9-.14-.42-.29-.89-.41-1.49-.2-1.03-1.2-3.52-2.17-5.93-1.04-2.57-2.11-5.23-2.44-6.66-.13-1.98-1.37-4.54-1.89-5.64-.1-.22-.19-.39-.23-.49-.22-.73-.5-1.45-1.18-2.22h-.02c-1.15,0-1.95-.64-2.6-1.15-.14-.11-.28-.22-.41-.32-.61-.45-2.4-.79-3.52-.79h-.15c-.77-.03-1.14-.3-1.4-.52-.05-.04-.1-.09-.16-.13l-.24-.18.05-.3c.15-.94.7-1.47,1.56-1.35.2.03.37.02.48-.01-.51-.43-1.26-1.18-1.52-1.99l-.5-1.57,1.29,1.03c.28.23.49.21.79.18-1.14-.94-2.64-2.35-3.13-3.36l-1.5-3.12,2.32,2.56c.46.51.98.89,1.54,1.2-.56-.94-1.2-1.99-2.19-2.76l-1.08-.83,1.36-.06h0c.39,0,.8.1,1.22.25-.66-.57-1.46-1.2-2.43-1.84-2-1.33-3.05-3.37-4.06-5.34-.98-1.9-1.99-3.87-3.88-5.32-1.42-1.08-2.95-1.63-4.55-1.63-1.85,0-3.43.75-4.17,1.49l-.27.27-.33-.2c-.82-.49-1.2-.04-1.72.86l-.17.29-.33-.04c-.12-.02-.24-.04-.36-.07-.15-.04-.29-.07-.41-.07-.17,0-.68,0-1.57,1.76-.25,2.71,1.02,6.76,1.32,7.65l.04.02.06.24c.11.56.27,1.28.5,2.33.3,2.54.93,3.29,1.6,4.09l.09.11c.36.43.57.77.75,1.08.21.35.37.6.66.86.53.46.65.83.79,1.3.07.21.15.47.29.81.17.38.48.54,1.07.54.24,0,.48-.02.7-.05l.21-.02c.12-.01.21-.02.3-.02.84,0,.91.59.96.94.01.11.03.25.06.41.21,1.03-1.15,1.82-1.75,2.11l-.05.02c-.5.28-1.63,1.01-2.83,1.79-1.43.93-3.06,1.97-4.08,2.57l-.11.06h-.12c-1.27.05-2.01,1.15-2.49,1.87-.23.34-.39.57-.6.69-.12.07-.27.11-.44.16-.73.22-1.19.43-1.08,1.29.01.11.04.22.07.34l.05.19-.1.17c-.41.74-1.39,2.38-3.28,4.97-2.36,3.24-7.87,8.86-9.18,9.12l-.08.02h-.08c-1.46-.22-4.33.64-5.79,1.43-1.74.94-6.45,2.3-10.41,2.3h-.23l-.15-.18c-1-1.18-1.62-1.36-1.9-1.36-.19,0-.35.08-.49.25-.31.36-.43,1.01-.37,1.42l.07.48-.47.09c-1.17.22-1.51.64-1.61.87-.09.2-.03.36-.01.39l.52.39-.55.36c-.24.19-.2.77.02,1.06l.22.29-.21.3c-.29.4-.28.78.62,1.46l.37.27-.23.4c-.31.5-.23.69.05.91l.32.25-.18.37c-.08.16-.07.22-.07.22.08.13.73.28,1.01.35l.59.14-.25.55c-.08.18-.32.85-.59,1.61-.4,1.12-.86,2.4-1.06,2.82-.11.24-.31.75-.52,1.32-.79,2.07-.97,2.47-1.22,2.64-.17.13-.33.23-.65.23-.28,0-.72-.06-1.88-.27-.81-.14-1.23-.11-1.69-.02-.51.09-1.25.18-2.49.03-.75-.21-1.41-.31-2.04-.31-1.48,0-2.55.55-3.13.85-.15.07-.27.13-.37.17l-.24.1h-.02c-.78.17-1-.45-1.1-.76-.03-.09-.06-.19-.1-.29l-.2-.43.31-.16-.08-.17.2.11c1-.53,1.42-1.62,1.73-2.43l.07-.19c.16-.41.28-1.93.36-3.04.08-1.03.13-1.68.21-1.97l.04-.13c.98-3.46.69-6.15-.81-7.58-1.68-1.6-2.54-1.81-2.95-1.91-.26-.06-.66-.16-.75-.65l-.11-.59h.6c1.2,0,1.99-.71,2.08-1.2.02-.09.07-.38-.51-.59-.86-.31-1.41.39-2,1.18-.34.46-.66.89-1.07,1.15l-.17.11c.03.09.04.18.04.25-.01.42-.32.94-2.66,1.22-.17,0-.24,0-.31,0-2.38,0-3.48,2.78-4.34,5.39l-.06.13c-.32.47-.52.95-.64,1.4.19-.22.38-.38.55-.47l.86-.48-.12.98c-.03.22-.11.42-.22.65-.23.54-.57,1.32-.44,2.95.02-.17.06-.33.13-.47.23-.5.65-.69.82-.74l3.73-1.26-3.21,2.09c-.01.11-.02.4.13,1.08.17.76.32,1.06.4,1.18l.57-.49.18.76c.3,1.2.52,1.7.8,2.14l.13.21-.08.23c-.21.56-.49.95-1.41,1.36l-.14.06h0c-.32.13-.72.27-1.22.43l-.11.04-.12-.02c-.21-.03-.42-.05-.62-.05-1.33,0-2.65.74-3.54,1.99-.71.8-.89,1.52-1.03,2.09-.05.22-.1.42-.17.58-.18.47-.28.6-.58.95-.1.12-.23.27-.4.49-.41.68-.78,1.13-1.27,1.13-.17,0-.49-.06-.71-.49-.25-.48-.43-1.81-.46-2.07,0-.21.04-.37.53-1.01.34-.74.34-1.73.35-2.61,0-.69,0-1.28.17-1.71.1-.25.23-.45.34-.62.27-.41.43-.66.06-1.63-.24-.62-.65-1.28-1.09-1.98-.65-1.04-1.39-2.23-1.8-3.66-.49-1.73-1.05-2.53-1.58-3.3-.16-.23-.31-.46-.47-.7-.71-1.14-3.19-6.23-4.01-7.97-.25-.53-.56-1.23-.91-2-.96-2.14-2.15-4.79-2.97-6.09-.81-1.28-2.47-3.67-3.57-5.25-.43-.62-.77-1.11-.92-1.33-.41-.61-.57-.95-.54-1.26-.07-.11-.15-.22-.22-.33-.37-.53-.84-1.19-1.04-2.65-.11-.83-.43-1.41-.77-2.04-.35-.64-.71-1.3-.85-2.23-.13-.84-.32-1.36-.53-1.96-.2-.56-.43-1.2-.62-2.15-.2-1.01-.43-1.73-.68-2.48-.21-.63-.42-1.28-.62-2.14-.17-.73-.3-1.06-.4-1.32-.17-.44-.26-.73-.35-1.79-.28-.78-.87-1.13-1.55-1.54-.66-.39-1.4-.83-1.82-1.71-.65-1.37-1.83-1.69-1.84-1.7l-.35-.09-.02-.36c-.04-.67-.42-.99-.79-1.31-.21-.18-.41-.34-.51-.57-.32-.68-1.04-2.39-.82-3.53.12-.61.57-.99,1.18-.99.79,0,1.82.63,2.76,1.68.67.76,1.15.87,1.38.87.4,0,.54-.35.57-.45.27-.95.82-1.26,1.87-1.13.03-.17,0-.51-.06-.78l-.05-.24.15-.19c.13-.17.51-.33,1.29-.06.17.09.21.09.22.09.1-.04.27-.42.34-.58.1-.22.19-.43.32-.59.19-.22.39-.26.53-.26.23,0,.4.12.53.21.2.14.42.28.91.18.33-.06.46-1.23.54-1.93.12-1.03.22-2.01.79-2.48.98-.73.96-1.19.95-1.57v-.14c0-.68.87-1.89,1.45-2.39.59-.52,1.07-1.01,1.38-1.44l-.49-.07.25-.62-.16-.96c0-.06-1.04-5.93-4.28-8.07-2.42-1.6-4.06-1.8-5.21-1.8-.5,0-.95.04-1.38.08l-.31.03c-1.41,0-3.97,1.43-5.46,3.48-1.15,1.58-1.65,3.05-2.09,4.35-.15.43-.28.84-.43,1.21-.34.86-1.09,2.2-1.68,3.29-.37.67-.83,1.5-.88,1.68-.25.89-3.4,2.16-3.43,2.17-.43.17-1.1-.18-1.58-.61-.22.41-.57.88-1.2,1.1-.2.07-.39.13-.57.19-.72.23-1.2.39-1.78.87l-.19.16-.24-.06c-.18-.05-.37-.04-.72-.02-.3.01-.7.03-1.3.03-.39,0-.64,0-.86.02-.55.02-.8.04-2.69-.13-1.36-.37-1.97-.19-2.53.02-.39.15-.85.29-1.35.19-.93-.19-1.24-.35-2.48.38-2.34,1.95-6.37,7.44-7.07,8.44-.23.33-.58.8-.99,1.34-1.06,1.4-2.51,3.32-3.02,4.48-.56,1.27-1.66,2.86-2.21,3.61.09.05.2.09.32.14l.63.21-.38.55c-.74,1.08-2.48,4.92-3.51,7.22l-.17.37c-.86,1.9-1.14,5.34-1.37,8.11l-.1,1.23c-.13,1.42.08,2.75.29,4.17.21,1.4.43,2.84.34,4.44-.09,1.6-.05,2.57-.02,3.35.03.73.05,1.26-.06,1.9-.04.19-.08.41-.13.66-.28,1.32-.74,3.54-.56,6.62.17,2.9,1.45,4.66,2.61,5.66l.86-.33c.14.34.35.73.61,1.01-.01-.03-.03-.07-.04-.1l.91-.41c.35.74.67.97.74.97.05-.07-.07-.32-.15-.49-.14-.29-.29-.62-.37-.99l.97-.24c.1.35.25.58.33.67.02-.03.05-.07.08-.12.3-.5-.06-2.58-.86-4.96-.45-1.35-.71-2.81-.72-2.87l-.12-.71.71.13s.32-.02.95-.38l.76-.45v.88c-.04,2.94,1.61,4.1,1.68,4.15l.46.31-.36.43h0s-.33.48-.36,1.93c-.06,1.64.05,2.66.16,3.65.14,1.32.28,2.56-.02,4.96-.28,2.28.13,5.5.53,8.62.32,2.47.61,4.79.58,6.65-.07,4.12,1.03,12.96,1.46,15,.25,1.16.23,3.04.21,5.42-.02,1.96-.04,4.17.1,6.37.24,3.98.78,5.8,1.26,7.41.09.31.18.62.27.94.53,1.92,1.2,5.73,1.05,8.17-.04.68-.04,1.13-.04,1.5,0,.92.01,1.43-.63,3.52-.54,1.77-.17,3.18.13,4.32.17.66.32,1.23.28,1.76l-.02.27c-.09,1.15-.14,1.72.73,2.71.66.75.65,1.14.57,1.83-.07.58-.17,1.44.19,3.38.29.88.89,1.32,1.85,1.32,2.13,0,5.11-2.13,6-3.01l.45-.45.33.54c.74,1.2,2.78,1.45,4.35,1.45,2.15,0,4.36-.45,5.21-.64.44-.1.52-.22.52-.22,0-.21-.74-.96-1.96-1.66-.95-.54-1.77-3.19-1.82-5.02-.03-1.15-.45-1.76-.86-2.35-.18-.26-.35-.5-.47-.77-.09-.21-.09-.43.02-.62.27-.5,1.07-.66,2.58-.92.76-.13,2.04-.35,2.25-.58.42-.58,1.01-3.11.93-6.69-.04-1.97.34-4.74.69-7.19.24-1.71.46-3.32.49-4.34.04-1.37.41-2.47.81-3.64.37-1.1.76-2.23.96-3.79.22-1.63.7-3.44,1.12-5.04.44-1.67.86-3.25.86-4.18,0-1.24.31-2.31.74-3.78.27-.92.58-1.97.89-3.33.81-3.51,1.09-6.85,1.09-8.81,0-1.08-.03-2.3-.06-3.41-.02-.94-.04-1.8-.04-2.44s-.06-2.66-.12-4.8c-.07-2.51-.15-5.35-.15-6.42,0-1.97-.44-4.97-.76-7.18h-.08v-.5c-.12-.6-.28-.99-.45-1.4-.32-.8-.63-1.55-.63-4,0-2.06-.19-2.38-.22-2.42-.28-.2-.44-.41-.48-.94-.05-.81-.26-1.2-.58-1.79-.08-.15-.17-.31-.26-.49-.34-.67.07-1.39.42-2.03.28-.5.57-1.01.44-1.34-.48-1.26-.31-1.7.42-3.2.38-.78.14-1.85-.06-2.71-.12-.55-.22-.99-.17-1.35.06-.43.32-.83.59-1.25.34-.52.72-1.1.85-1.9l.05-.15c.6-1.14,1.26-3.07,1.2-3.85l-.05-.6.6.06h0c.57,0,1.16-.79,1.37-1.17l.69-1.28.24,1.43s.21,1.1,1.33,2.58c1,1.31,1.33,3.98,1.43,5.27.39-.14.95-.31,1.74-.49l.36-.08.18.32c.16.29.28.59.41.93.42,1.1,1.12,2.93,4.6,7.2l.08.13c2.66,6.73,6.22,10.59,9.36,13.48,3.81,3.51,4.33,5.94,4.35,6.04l.05.27-.2.19c-.68.65-.56,1.36-.45,2.05.05.3.1.59.06.85-.03.19-.11.46-.21.79-.24.78-.6,1.95-.34,2.92.03.11.06.14.06.14.16-.03.82-.63,1.3-1.25l1.06-1.39-.29,3.23-.08.11c-.06.09-.14.39.05,1.38.03.14.04.24.04.28-.02.46.68.51.69.51l.61.04-.16.59h0s-.06.26-.11.93c0,.53.07,1.24.16,2.14.07.69.15,1.49.21,2.4.09,1.32.56,2.3,1.01,3.25.23.49.46.96.62,1.46.23.7.87,1.15,1.63,1.15.43,0,.87-.15,1.25-.43.95-.7,2.25-2.68,2.88-3.63.44-.67.5-.76.66-.84l.1-.05h.4s.17.22.17.22c.21.3.26.38-1.72,5.67-1.04,5.31-2.13,16.65-2.13,18.64,0,1.04-.44,1.86-.9,2.74-.47.88-.95,1.8-1.02,3.04-.02.34-.07.68-.16.99l-.03.1c-.25.83-.68,1.44-1.1,2.03-.55.78-1.03,1.45-1,2.52.05,1.53.09,1.54,2.23,2.02.59.13,1.31.3,2.2.53,2.22.59,2.66.89,2.81,1.32.13.38-.08.67-.21.85-.14.19-.14.22-.12.29.04.12.17.48,1.38.48.69,0,1.62-.11,3-.36l.62-.11-.03.62c-.04.96.12,1.91.24,2.67.08.48.15.9.15,1.21,0,.47-.34,1.23-.9,2.42-.33.71-.74,1.59-.78,1.91-.11.95-1.04,1.96-1.8,1.96-.15,0-.29-.04-.41-.11-.01,0-.06-.02-.14-.02-.41,0-1,.46-1.29,1.76-.28,1.23-.67,1.78-1.01,2.27-.28.4-.53.75-.72,1.52-.21.84-.03.98.72,1.54.45.34,1.02.77,1.64,1.5.51.6,1.1.86,1.96.86.54,0,1.12-.1,1.74-.2.71-.12,1.44-.24,2.21-.24.42,0,.51-.08.51-.08.05-.21-.48-1.02-.73-1.42-.34-.54-.67-1.04-.76-1.48-.24-1.09-.65-3.72-.65-4.14,0-.38.28-.64.71-1.04.35-.33.79-.75,1.14-1.29l.45-.69.4.72c.5.88.75,2.21.8,4.16.03,1.16.52,2.78.92,4.09.24.81.46,1.5.55,2.03.17.96.49,1.13,1.11,1.13.33,0,.75-.07,1.27-.2,2.06-.53,2.16-2.16,2.04-3.09-.1-.78.18-1.32.45-1.84.34-.65.67-1.27.39-2.54-.31-1.43-1.46-1.63-2.65-1.64-.33,0-.53,0-.7-.18-.16-.16-.25-.43-.49-1.23-.09-.31-.18-.62-.26-.81-.14-.36-.15-.99-.15-2.07,0-.61,0-1.29-.04-1.91v-.2s.12-.15.12-.15c.49-.57,1.19-2.24,1.8-3.7.41-.99.8-1.92,1.14-2.55l.12-.23.25-.03c.72-.1,1.92-.41,2.64-.6.23-.06.43-.11.56-.14.01-.03.03-.05.05-.08l.18-.3c.34-.52,1.08-1.4,2.92-1.23l.2.02.13.15c.58.67,1.64.81,2.41.81,1.38,0,2.67-.43,3.04-.67-.05-.48-.29-1.87-.51-3.22-.35-2.09-.78-4.68-1.05-6.7-.34-2.57-2.33-11.82-3.65-17.93-.59-2.73-1.01-4.71-1.11-5.22-.21-1.16-1.07-3.7-1.59-5.22-.21-.63-.37-1.1-.43-1.29-.2-.71.02-2.82.83-3.11.2-.07.52-.08,1.38-.08h.23c1.26,0,3.59,0,5.76-.39,3.2-.57,4.37-2.14,4.42-2.61.08-.8.59-2.62,1.12-3.68.31-.61.45-2.8.52-3.97.03-.52.06-.94.09-1.18.08-.58.1-1.66.12-2.61,0-.38.02-.75.03-1.07v-.24s.19-.14.19-.14q.5-.39.75-.79c.12-.2.29-.48.58-.9l.17-.26.3.04c2.33.28,4.55.42,6.6.42,5.29,0,8.28-.93,9.56-1.33.29-.09.51-.16.67-.19.88-.18,7.15-3.95,8.28-4.98.99-.9,4.31-4.05,5.86-5.65.75-.78.89-1.19.91-1.33l.18-1.1.22.27c.11-.08.24-.1.34-.1.3,0,.55.21.74.39l.15.15v.21c0,1.89.53,3.34.92,4.4.25.69.45,1.23.45,1.72,0,1.07-.48,5.34-.94,7.09-.27,1.04-.4,1.91-.53,2.83-.08.54-.16,1.09-.27,1.67l-.06.15c-.36.63-.47,1.17-.61,1.8-.08.38-.17.77-.31,1.21-.22.67-.2.93-.14,1.03.05.08.21.15.45.18l.42.06v.42c.05,1.95-.59,5.2-1.21,8.35l-.17.88c-.78,3.95-.63,14.07-.58,17.88.05,3.37-.18,5.36-.35,6.37.26-.04.57-.08.94-.08.95,0,1.98.21,3.06.61,1.7.64,2.46.6,3.42.24l.52-.2.14.54c.52,1.97,1.21,4.65,1.5,6.24.25,1.34.04,3.84-.17,6.27-.17,2.08-.35,4.23-.22,5.41.19,1.67,1.57,6.32,2.58,9.71.55,1.86.99,3.32,1.14,3.99.15.65.46,1.48.69,2.05l.04.12h0s.53,1.29.53,1.29c.51,1.24.96,2.31,1.06,2.97.05.3.13.67.22,1.08.29,1.33.65,2.99.36,4.13-.05.19-.11.4-.17.63l-.45,1.6Zm-1.96-9.42c-.05.14-.11.29-.18.44-.28.69-.66,1.63-.56,2.26.04.25.09.46.14.65.16.68.3,1.27-.03,2.68-.24,1.02.1,2.03.47,2.59.22.33.44.5.57.52.22.04.42.1.61.16.16.05.3.09.4.1h.2s-1.61-9.4-1.61-9.4Zm-73-69.57c0,.12,0,.24-.02.37l-.05.56c.19-.12.29-.23.35-.35-.1-.17-.19-.36-.28-.58Zm-2.11-2.77c.16.73.39,1.16.65,1.47-.16-.32-.35-.72-.57-1.27-.03-.07-.05-.14-.08-.21Zm4.72-15.73c-.24,0-.49.13-.75.4-.21.22-.32.42-.28.53.03.1.3.59,2.51.97.12.02.23.05.33.08-.34-.87-1.11-1.97-1.81-1.97Zm88.72,19.77l-1.19-.1.46-.72c.84-1.17,1.59-2.5,1.81-2.88l1.15-2.07-.21,2.34c-.03.34-.41,1.05-1.06,2-.32.42-.58.8-.8,1.16l-.16.27Zm-1.95-.16l-1.4-.13.56-.72c.2-.26.43-.61.72-1.11l.87.49c-.21.38-.42.78-.6,1.15l-.15.31Zm1.08-2.05l-.87-.49.26-.47c.31-.56.48-.89.62-1.06l2.25-2.87-1.39,3.37c-.06.15-.21.4-.51.91l-.35.61Zm-1.55-5.53l-.77-.63c.69-.86,1.36-1.4,2.01-1.91h0s.03-.03.05-.04l.65.76c-1.03.89-1.61,1.44-1.95,1.83Zm2.36-2.29l-.2-.65c-1.39-4.52-.83-12.44-.64-15.04.02-.32.04-.55.04-.66l.07-1.89.88,1.68c.91,1.75,2.68,4.98,3.48,6,.97,1.23.93,1.66.67,2.7-.05.21-.12.47-.18.78-.3,1.54-2,5.55-2.66,6.07l-.16.12c-.18.14-.18.14-.34.25l-.96.64Zm.09-14.55c-.36,5.82-.2,10.17.49,12.95.02-.02.05-.04.09-.08l.16-.13c.35-.35,1.98-3.86,2.3-5.48.06-.33.13-.6.19-.83.21-.82.23-.93-.48-1.84-.69-.88-1.92-3.08-2.75-4.6Z"/>
    </g>
    <g>
      <path class="cls-2" d="m382.04,296.01c-.1-1.41-2.8-25.89-2.97-35.96,2.32-9.52-.36-14.51-1-16.57-.64-2.06-.18-7.58-.16-11.15.02-3.57,3.23-19.04,4.47-28.45,1.24-9.41-3.45-24.7-4.19-29.69-.73-4.98-4.59-13.12-10.09-17.26-5.5-4.14-13.15-11.65-14.55-14.25-1.39-2.61-4.08-6.52-4.5-9.66-.42-3.14-1.26-8.13-4.92-13.02-3.66-4.89-11.05-20.08-14.49-26.49-3.43-6.4-6.08-19.41-7.35-25.37-1.27-5.96-4.45-20.16-5.95-24.17-1.5-4.01-5.16-7.06-8.31-6.21-3.14.85-4.32-2.08-4.53-3.49-.21-1.41,3.37-2.47,1.76-5.73-1.61-3.26-5.55,4.95-11.09,9.58-8.78,1.58-11.95,8.5-16.62,10.75-4.67,2.25-8.04,6.24-10.12,9.8-2.07,3.56.85,3.69,3.21,2.42,5.1,2.95,6.82-.7,6.82-.7.33-.49,4.8-.95,5.93-.78,1.14.17,6.98.03,8.45.04,1.46,0,7.31-.78,9.59-.77,2.27.01,4.37,3.59,4.84,6.19.47,2.6,3.32,17.88,4.12,21.62.79,3.74,2.49,21.94,4.58,27.31,2.09,5.37,3.97,17.72,6.55,23.26,2.57,5.53,3.68,11.87-.75,20.78-4.43,8.91-6.03,20.68-5.8,23.11.23,2.44-.64,14.86-.65,16.72,0,1.87,1.25,9.1,2.37,12.6,1.12,3.5,2.38,11.95,3.02,14.06.64,2.11.68,11.37.75,12.75.07,1.38-1.52,11.44-1.69,13.55-.17,2.11.93,9.18,1.25,10.73.32,1.54.09,14.78-.17,17.78-.26,3,.51,12.75.98,15.19.48,2.44-.6,7.31-1.26,8.11-.65.81,3.81.34,4.47.02.65-.32-.81-.98-.88-3.5-.07-2.52.3-11.37.39-12.99.09-1.62,1.03-12.26.81-15.26-.23-3.01,1.26-7.63,2.26-14.04,1.01-6.41,1.2-13.8.32-15.43-.89-1.63-.21-7.88-.19-10.8.01-2.92.88-13.31.41-16.89-.47-3.58,1.42-7.55,1.43-9.49,0-1.95,3.9.34,6.01.44,2.11.09,3.08,1.64,4.29,3.76,1.21,2.12,1.73,11.05,2.21,12.68.48,1.63.05,7.31.27,10.56.23,3.25-1.69,14.04-1.95,16.48-.26,2.43,2.06,10.73,2.54,12.44.48,1.71.42,13.08.98,15.6.56,2.52,1.94,18.93,2.02,19.34.08.41.79,4.23-1.81,5.43-2.6,1.21,3.57.42,4.27.43.7,0,1.14-.16.38-1.13-.75-.98.04-8.23-.37-12.56-.41-4.33-.27-12.13-.26-13.86,0-1.73-.55-8.88.78-15.97,2.57-5.51,1.08-10.71.87-12.01-.21-1.3-.36-4.55.08-5.2.37.81,1.22,4.17,1.49,5.53.26,1.35,1.16,6.18,1.32,6.83.16.65.79,3.96,1.16,5.69.37,1.73,1.25,10.89,1.51,13.05.26,2.17.57,5.52.77,8.18.2,2.65,1.15,8.61,1.73,11,.58,2.38,1.53,8.51,1.36,9.56-1.3.45.16,1.11,2.76.96,2.6-.15,1.3-.81.09-1.7-1.21-.9-.93-14.49-1.4-17.19-.47-2.71.04-7.58-.54-10.67-.58-3.09,1.08-10.77,1.09-13.42.01-2.65,1.78-9.84,2.23-12.93s-2.78-7-3.53-9c-.75-2.01-1.59-7.42-1.95-10.3-.37-2.87,1.62-10.77,2.02-14.55.4-3.79,1.53-3.13,1.69-2.1.16,1.03,3.67,23.89,4.31,26.71-.88,2.76-.35,5.03,1.26,7.64,1.09-2.05,1.21-4.22-.39-8.12-1.6-3.91-4.21-25.68-3.87-27.41.33-1.73.65.76,1.39,3.9.74,3.14,6.08,19.74,7.35,24.51,1.28,4.77.06,9.74.04,13.21-.02,3.46,3.09,11.28,4.48,14.64,1.39,3.36,1.02,12.56,1.87,15.82.85,3.25,2.2,14.19,2.2,16.14,0,1.95-2.5,1.18-.01,2.38,2.48,1.2,4.22-.09,4.55-.19.33-.11-1.73-1.42-1.83-2.82Z"/>
      <path class="cls-2" d="m320.76,303.61c-1.02,0-1.49-.15-1.68-.53-.05-.11-.15-.41.11-.73.52-.65,1.62-5.34,1.16-7.7-.49-2.51-1.25-12.35-.99-15.33.26-2.99.49-16.13.18-17.64-.33-1.6-1.43-8.71-1.26-10.87.07-.87.36-2.96.7-5.38.46-3.26,1.03-7.33.98-8.1-.02-.3-.03-.97-.05-1.85-.06-2.98-.2-9.19-.68-10.79-.28-.91-.65-2.91-1.09-5.23-.6-3.2-1.29-6.83-1.93-8.83-1.1-3.44-2.41-10.75-2.4-12.75,0-.64.1-2.44.23-4.71.24-4.38.57-10.39.42-11.97-.24-2.51,1.4-14.44,5.85-23.38,4.65-9.35,2.98-15.53.74-20.35-1.45-3.11-2.66-8.26-3.83-13.23-.93-3.96-1.81-7.69-2.73-10.05-1.44-3.7-2.68-13.27-3.58-20.26-.41-3.19-.77-5.94-1.02-7.12-.8-3.76-3.67-19.16-4.12-21.63-.48-2.61-2.53-5.78-4.35-5.78h0c-1.29,0-3.62.23-5.68.44-1.72.17-3.2.32-3.89.32h-.14c-.4,0-1.05,0-1.8.02-1.09.01-2.41.03-3.59.03-1.63,0-2.59-.03-3.01-.09-.14-.02-.35-.03-.59-.03-1.74,0-4.37.38-4.87.64-.24.44-1.29,2.03-3.62,2.03-1.09,0-2.31-.36-3.62-1.08-.86.42-1.76.66-2.49.66-1.02,0-1.49-.44-1.7-.81-.41-.71-.22-1.75.56-3.1,1.52-2.61,4.88-7.37,10.33-10,1.62-.78,3.12-2.21,4.7-3.73,2.93-2.8,6.25-5.98,11.91-7.04,2.1-1.77,3.94-4.04,5.57-6.04,2.04-2.51,3.52-4.32,4.8-4.32.4,0,.97.18,1.39,1.02,1.17,2.38-.13,3.82-1,4.77-.39.43-.76.83-.72,1.11.02.13.51,3.21,2.96,3.21.3,0,.61-.05.94-.13.39-.11.81-.16,1.22-.16,3.01,0,6.24,2.81,7.68,6.68,1.48,3.96,4.55,17.59,5.97,24.24l.21.98c1.35,6.38,3.87,18.25,7.09,24.26.9,1.68,2.07,3.96,3.38,6.5,3.74,7.28,8.4,16.35,11.07,19.92,3.48,4.66,4.49,9.31,5.01,13.25.31,2.33,1.99,5.21,3.33,7.53.41.7.79,1.37,1.11,1.96,1.36,2.54,9.03,10.05,14.41,14.09,5.42,4.08,9.49,12.15,10.29,17.59.19,1.27.65,3.27,1.18,5.6,1.57,6.83,3.94,17.15,3.01,24.23-.56,4.26-1.55,9.88-2.41,14.84-1.05,5.99-2.04,11.64-2.05,13.55,0,.99-.04,2.14-.08,3.31-.1,2.94-.21,6.28.22,7.69.08.25.19.55.32.9.89,2.42,2.75,7.45.71,15.88.14,8.25,1.99,26.24,2.68,33.03.16,1.56.26,2.58.28,2.84.05.71.83,1.49,1.3,1.96.41.41.63.64.55.98l-.07.27-.3.12s-.07.04-.14.07c-.41.21-1.28.66-2.47.66h0c-.77,0-1.55-.19-2.32-.56-.97-.47-1.36-.7-1.38-1.14-.02-.38.29-.58.5-.7.3-.19.61-.38.62-.99,0-1.98-1.36-12.89-2.18-16.01-.38-1.44-.52-3.94-.67-6.6-.19-3.42-.42-7.31-1.18-9.15-2.07-5-4.53-11.63-4.51-14.83,0-1.06.12-2.25.24-3.51.28-2.96.6-6.31-.27-9.57-.61-2.29-2.18-7.37-3.7-12.28-1.68-5.45-3.27-10.59-3.66-12.24-.12-.52-.23-1.03-.34-1.5.47,6.15,2.51,21.62,3.77,24.7,1.54,3.76,1.65,6.15.37,8.55l-.41.77-.46-.74c-1.77-2.86-2.18-5.24-1.35-7.92-.72-3.41-4.25-26.38-4.29-26.61-.02-.14-.06-.24-.1-.31-.13.18-.42.75-.6,2.39-.15,1.41-.51,3.37-.89,5.44-.63,3.41-1.35,7.26-1.13,9,.39,3.06,1.22,8.3,1.92,10.18.21.56.64,1.31,1.15,2.18,1.22,2.11,2.75,4.74,2.41,7.07-.17,1.15-.51,2.86-.88,4.67-.62,3.07-1.33,6.56-1.34,8.18,0,1.02-.24,2.69-.5,4.62-.42,3.05-.95,6.85-.6,8.7.31,1.67.32,3.8.32,5.86,0,1.83,0,3.57.22,4.81.18,1.03.25,3.45.33,6.25.11,3.73.29,9.96.89,10.64l.4.29c.75.54,1.35.96,1.18,1.55-.16.55-.86.7-1.95.76-.27.02-.52.02-.77.02-1.05,0-2.84-.13-2.99-1-.04-.24.02-.56.5-.82.01-1.48-.82-6.85-1.37-9.11-.6-2.44-1.54-8.45-1.75-11.08-.18-2.4-.49-5.86-.77-8.16-.08-.65-.21-1.91-.37-3.42-.37-3.54-.88-8.4-1.13-9.59-.18-.83-.41-2.01-.63-3.09-.24-1.18-.45-2.25-.53-2.59-.11-.46-.57-2.89-.94-4.85-.16-.85-.3-1.59-.38-2-.15-.77-.47-2.09-.78-3.26,0,.95.08,2.02.2,2.75.02.13.06.31.1.53.37,1.83,1.35,6.67-.99,11.72-1.08,5.81-.89,11.65-.79,14.47.02.59.03,1.05.03,1.35v.93c-.04,2.73-.1,9.12.25,12.88.19,1.97.13,4.54.08,6.81-.05,2.25-.11,5.06.19,5.49.32.42.66.96.42,1.44-.25.5-.9.5-1.18.5h0c-.17,0-.52.03-.97.07-.86.07-2.04.18-2.91.18-.74,0-1.42-.04-1.54-.59-.12-.56.55-.87.91-1.04,2.17-1,1.66-4.24,1.53-4.88-.02-.12-.08-.75-.3-3.17-.46-5.01-1.31-14.33-1.71-16.15-.3-1.34-.42-4.97-.54-8.48-.11-3.11-.22-6.32-.43-7.09-1.05-3.76-2.79-10.4-2.55-12.62.07-.7.28-2.05.54-3.76.62-4.12,1.57-10.36,1.41-12.63-.1-1.39-.08-3.21-.05-4.97.03-2.27.06-4.61-.2-5.48-.18-.62-.35-2.08-.57-3.93-.37-3.11-.87-7.36-1.6-8.64-1.21-2.12-2.04-3.42-3.87-3.5-.81-.04-1.81-.35-2.77-.66-.87-.28-1.77-.56-2.33-.56-.38,0-.38.09-.38.28,0,.79-.28,1.83-.59,3.03-.5,1.89-1.12,4.25-.84,6.39.33,2.49.03,7.99-.2,12.41-.1,1.95-.19,3.63-.2,4.55,0,.81-.06,1.86-.11,2.98-.14,2.75-.33,6.51.25,7.58,1.02,1.88.69,9.66-.26,15.74-.39,2.46-.84,4.65-1.24,6.59-.64,3.1-1.15,5.54-1.01,7.33.18,2.39-.36,9.41-.65,13.18-.08,1.03-.14,1.8-.16,2.15-.08,1.47-.46,10.4-.39,12.95.04,1.29.46,2.03.75,2.52.2.34.37.64.27.98-.04.14-.15.33-.42.46-.52.26-2.37.48-3.51.48Zm-.55-1.02c.13.01.31.02.55.02,1.04,0,2.33-.18,2.86-.31-.02-.04-.04-.07-.06-.11-.31-.54-.84-1.45-.88-2.99-.07-2.58.31-11.56.39-13.03.02-.35.08-1.14.16-2.17.29-3.74.82-10.71.65-13.02-.15-1.93.37-4.44,1.03-7.61.4-1.93.85-4.11,1.23-6.54,1.08-6.9,1.09-13.79.37-15.11-.71-1.31-.53-4.92-.37-8.1.06-1.11.11-2.15.11-2.94,0-.94.1-2.63.2-4.6.22-4.15.53-9.83.21-12.22-.31-2.34.34-4.8.86-6.78.3-1.14.56-2.12.56-2.78,0-.8.52-1.28,1.38-1.28.71,0,1.64.29,2.63.61.9.29,1.84.58,2.52.61,2.47.11,3.55,2,4.7,4.01.83,1.46,1.32,5.65,1.72,9.02.2,1.73.38,3.23.54,3.76.3,1.01.27,3.33.24,5.78-.02,1.74-.04,3.54.05,4.89.17,2.38-.75,8.43-1.42,12.85-.26,1.69-.46,3.03-.53,3.71-.16,1.51.76,5.97,2.52,12.25.25.89.35,3.87.47,7.33.11,3.3.24,7.04.52,8.3.42,1.88,1.27,11.25,1.73,16.28.14,1.58.27,2.94.29,3.08.14.71.67,4.17-1.59,5.69.79-.02,1.78-.1,2.52-.17.49-.04.88-.07,1.03-.07h0c.09,0,.16,0,.21,0-.04-.08-.11-.18-.22-.32-.5-.65-.48-2.55-.4-6.12.05-2.24.11-4.78-.07-6.69-.36-3.81-.3-10.24-.27-12.99v-.92c0-.29,0-.74-.02-1.31-.1-2.86-.29-8.81.82-14.75l.04-.12c2.23-4.77,1.32-9.25.94-11.16-.05-.23-.08-.42-.11-.56-.17-1.03-.44-4.67.16-5.56l.5-.74.37.81c.4.88,1.26,4.28,1.53,5.64.08.42.22,1.16.38,2.01.35,1.84.82,4.36.93,4.79.08.34.3,1.43.54,2.63.22,1.08.45,2.25.63,3.08.27,1.24.78,6.13,1.15,9.7.16,1.5.29,2.76.37,3.4.28,2.31.59,5.78.77,8.2.2,2.6,1.13,8.51,1.72,10.92.54,2.21,1.56,8.53,1.37,9.76l-.04.26c.46.1,1.25.18,2.28.12.38-.02.64-.05.81-.08-.16-.13-.38-.28-.55-.41-.14-.1-.29-.2-.43-.31-.82-.61-1.05-3.51-1.28-11.4-.08-2.65-.15-5.16-.32-6.11-.23-1.33-.24-3.1-.24-4.98,0-2.02,0-4.1-.3-5.68-.38-2.02.14-5.74.59-9.03.25-1.82.49-3.54.49-4.49,0-1.72.73-5.26,1.36-8.38.37-1.8.71-3.5.87-4.62.29-1.98-1.14-4.45-2.29-6.42-.52-.91-.98-1.69-1.22-2.33-.79-2.12-1.64-7.73-1.98-10.41-.24-1.89.46-5.66,1.14-9.31.38-2.05.74-3.98.88-5.36.24-2.25.76-3.35,1.6-3.35.53,0,.97.5,1.08,1.22,0,.06.25,1.66.63,4.05-.27-2.75-.4-4.76-.31-5.25.07-.36.19-.97.72-.97.59,0,.7.53,1.18,2.77.13.62.29,1.33.46,2.08.38,1.61,2.04,6.98,3.64,12.17,1.52,4.92,3.09,10.01,3.71,12.32.92,3.43.59,6.88.3,9.92-.12,1.24-.23,2.41-.24,3.42-.01,2.37,1.56,7.5,4.44,14.45.83,2.01,1.05,5.81,1.26,9.48.15,2.6.29,5.06.64,6.4.85,3.27,2.22,14.21,2.21,16.27,0,.92-.46,1.39-.82,1.66.13.07.3.16.53.27.63.3,1.26.46,1.88.46.73,0,1.31-.21,1.71-.4-.56-.57-1.51-1.52-1.58-2.59-.02-.25-.12-1.27-.28-2.81-.7-6.81-2.55-24.92-2.69-33.18v-.06s.01-.06.01-.06c1.99-8.17.27-12.85-.66-15.36-.13-.37-.25-.68-.33-.95-.49-1.57-.38-4.85-.27-8.02.04-1.17.08-2.3.08-3.29,0-2,.96-7.43,2.07-13.72.87-4.95,1.85-10.55,2.41-14.8.91-6.9-1.44-17.11-2.99-23.87-.56-2.44-1-4.37-1.19-5.68-.76-5.13-4.76-13.07-9.9-16.94-5.56-4.19-13.25-11.73-14.69-14.42-.31-.58-.69-1.24-1.1-1.93-1.39-2.39-3.12-5.37-3.46-7.9-.51-3.81-1.48-8.31-4.82-12.78-2.72-3.64-7.4-12.75-11.16-20.06-1.3-2.54-2.47-4.81-3.37-6.49-3.29-6.14-5.83-18.1-7.19-24.52l-.21-.98c-1.14-5.33-4.42-20.05-5.92-24.1-1.45-3.88-4.99-6.64-7.71-5.9-.42.11-.82.17-1.2.17-2.65,0-3.74-2.66-3.95-4.07-.11-.75.41-1.32.97-1.93.84-.93,1.71-1.88.84-3.65-.23-.47-.42-.47-.49-.47-.81,0-2.44,2.01-4.03,3.95-1.68,2.07-3.59,4.41-5.81,6.26l-.1.09-.13.02c-5.44.98-8.68,4.07-11.53,6.8-1.64,1.57-3.19,3.05-4.96,3.9-5.21,2.52-8.44,7.1-9.9,9.6-.8,1.38-.66,1.92-.56,2.09.15.27.59.31.83.31.64,0,1.49-.25,2.27-.67l.25-.13.24.14c1.24.72,2.37,1.08,3.36,1.08,2.01,0,2.76-1.55,2.77-1.56.59-.88,5.13-1.1,5.72-1.1.3,0,.56.01.74.04.36.05,1.32.08,2.86.08,1.18,0,2.49-.02,3.58-.03.76,0,1.41-.02,1.81-.02h.12c.65,0,2.18-.15,3.8-.32,2.08-.21,4.43-.45,5.73-.45,2.71.01,4.89,3.91,5.38,6.6.45,2.47,3.32,17.86,4.11,21.61.26,1.22.6,3.86,1.03,7.2.9,6.94,2.13,16.44,3.52,20.03.94,2.43,1.83,6.2,2.77,10.19,1.16,4.92,2.36,10.02,3.76,13.04,2.2,4.74,4.11,11.43-.76,21.22-4.36,8.78-5.98,20.41-5.75,22.84.16,1.66-.18,7.7-.42,12.12-.12,2.17-.22,4.04-.23,4.66,0,1.75,1.23,8.95,2.35,12.44.66,2.06,1.35,5.72,1.96,8.95.43,2.29.8,4.26,1.06,5.12.52,1.72.65,7.79.72,11.05.02.87.03,1.52.05,1.82.04.81-.38,3.95-.99,8.29-.32,2.31-.63,4.49-.7,5.33-.17,2.03.93,9.07,1.24,10.58.33,1.61.11,14.81-.16,17.93-.25,2.92.49,12.58.97,15.05.44,2.24-.37,6.59-1.13,8.14Zm45.29-66.33l.02.09-.04.13c-.7,2.21-.5,4.11.73,6.4.57-1.53.57-3.41-.71-6.62Z"/>
    </g>
    <g>
      <g>
        <path class="cls-2" d="m307.84,292.75c-4.44-1.62-9.51-1.91-10.46-5.08-.96-3.15-1.43-6.81-2.42-5.84-.87.84-1.51.98-1.51.98,0,0-2.13-12.78-1.57-17.23.57-4.44-.35-16.43-.2-17.5.15-1.08,2.11-8.14-1.38-14.21-3.51-6.06-4.94-16.33-10.77-22.85,0,0,.45-.4.54-1.18.12-.47.43-1.79.79-3.41.35-1.62.74-3.53.98-5.18,2.9-.35,10.04-4.22,11.25-4.92,1.24-.7,2.79-1.66,4.7-2.2,1.9-.55,2.88-.64,3.06-1.28.11-.41-.43-.4-.82-.34.46-.11,1.18-.34,1-.74-.12-.26-.47-.3-.82-.29.33-.08.64-.2.73-.36.07-.57-.75-.53-1.36-.41.22-.07.49-.18.83-.34.34-.86-1.66-.43-1.79-.42.01-.05.15-.25,1.18-.49,1.99-.53,3.36-1.11,1.88-1.4-5.21.11-6.58,1.74-8.02,2.71-1.44.97-2.2,1.96-4.21,2.37-2,.42-5.93,1.5-5.93,1.5.69-1.59.21-5.63.15-6.07.25-.56.52-1.1.83-1.58,2.17-3.31.25-8.01-1.37-10.93-1.57-2.84-4.42-4.88-4.56-4.97.06-2.03.87-2.88.72-5.43,0,0,4.15-.14,3.39-2.56-.12-.38.15-.66.32-.79.06-.05.05-.13-.01-.16l-.36-.21c-.07-.05-.05-.15.04-.16l.39-.05c.08-.01.13-.08.12-.16-.08-.28-.27-.96-.54-1.42l.67-.21c.13-.05.18-.21.09-.32-.39-.49-1.21-1.72-.81-2.93.48-1.45-.23-3.76-1.13-4.43.05.04.09.07.12.09,0,0-.67-4-6.35-3.32-5.69.67-7.19,3.95-7.16,5.12,0,0-3.25-1.06-3.13,3.56.13,4.63-5.26,7.26-5.26,7.26,0,0,2.19.33,4.85-3.08,0,0-.75,2.77-2.66,4.29.39-.18,3.47-1.74,4.56-4.85.49-1.41.7-2.19.8-2.64-.01,1.09-.11,3.51-.72,4.7,0,0,1.62-1.48,1.86-2.81-.01.69.18,2.54,2.47,3.42,0,0-.06-.33-.04-.77,0,.59.15,1.42.55,2.73l-2.78.23c-1.79-.42-5.21-.59-8.9,2.59-5.52,4.74-13.97,13.79-15.51,15.55-1.51,1.74-2.36,2.36.83,5.8,3.18,3.45,8.92,7.71,8.92,7.71,0,0,4.27,2.92,4.88,4.06.28.53,1.18,1.59,2.19,2.6-.01.01-.02.02-.05.04-1.84,1.62-2.09,5.82-2.09,5.82.16-.09.32-.18.48-.27-.26.16-.36.25-.48.27,0,0-.52,6.72,4.77,10.32,0,0,.56.91,1.49,2.34-.04.2-1.04,5.77-.53,12.12.52,6.46-1.17,11.97-1.17,11.97-8.68-.74-20.7,7.81-23.54,9.97-2.84,2.17-6.71,3-6.71,3,.21-.3.35-.48.35-.48,1.14-2.06-5.11-2.15-6.98-2.32-1.88-.18-2.99,1.78-3.56,4.07-.57,2.29,2.25,7.97.13,10.88s-1.17,8.53-.13,10.67,3.63,3.46,4.14-2.2c.49-5.67,5.35-8.92,6.24-9.85.89-.94,4.1-.75,1.91-1.75-.33-.15-.64-.32-.93-.5.21.12.34.18.34.18,0,0,6.91-4.87,10.22-5.78,3.32-.91,12.47-2.9,15.87-4.88,3.39-1.97,8.34-2.44,9.79-3.53,6.03-4.5,7.27-15.16,7.27-15.18.25.21.49.41.74.57,4.72,3.34,3.05,8.5,3.05,8.5,0,0-2.71,6.01-.11,15.64,2.37,8.78,3.85,23.44,4.08,25.89-.01-.05-.04-.11-.07-.14,0,0-1.43-3.28-1.11.39.32,3.67-.9,9.67.39,9.78,1.29.11,9.48-1.08,15.14-1.21,5.65-.13,13.04-4.2,7.93-6.05Zm-44.9-96.19c-.09,0-.18,0-.26-.01-1.27-.19-10.14-7.1-11.64-9.91-.45-.82,6.64-4,10.18-7.29,0,0,1.17.77,1.54,2.17.43,1.93.62,4.54.62,7.29,0,2.59-.16,5.31-.43,7.75Zm.7,24.05c.09-.21.5-1.02,1.31-2.06-.47.64-.91,1.32-1.31,2.06Z"/>
        <path class="cls-2" d="m284.98,300.52h0c-.1,0-.18,0-.24,0-1.27-.1-1.14-2.21-.94-5.39.1-1.61.22-3.44.09-4.84-.12-1.39,0-1.83.22-2.07.12-.13.29-.21.46-.21.07,0,.17,0,.3.07-.5-4.76-1.87-16.45-3.87-23.83-2.62-9.69.02-15.72.13-15.98.04-.15,1.48-4.81-2.88-7.89-.03-.02-.05-.04-.08-.06-.45,2.74-2.2,10.82-7.34,14.66-.73.55-2.07.91-3.78,1.37-1.99.54-4.25,1.14-6.06,2.2-2.73,1.59-9.01,3.16-13.17,4.2-1.13.28-2.11.53-2.83.73-2.6.72-7.6,4.02-9.4,5.25.47.23.92.52.88.99-.04.54-.62.7-1.35.89-.5.14-1.19.32-1.45.59-.14.15-.37.35-.67.6-1.63,1.4-5.03,4.32-5.43,8.94-.33,3.71-1.55,4.49-2.51,4.49-1.14,0-2.1-1.14-2.57-2.11-1.15-2.35-2.08-8.1.17-11.18,1.18-1.62.63-4.33.15-6.72-.33-1.61-.61-3-.36-3.99.72-2.87,2.08-4.46,3.82-4.46h0c.09,0,.18,0,.28.01.25.02.57.05.95.07,3.03.2,5.8.48,6.47,1.7.1.18.18.43.14.75,1.32-.4,3.61-1.23,5.42-2.62,2.28-1.73,14.38-10.58,23.47-10.09.36-1.34,1.47-6.07,1.05-11.4-.47-5.77.3-10.89.5-12.05-.7-1.09-1.18-1.85-1.33-2.1-4.27-2.96-4.86-7.8-4.91-9.8l-.04.02.05-.79c0-.07,0-.11,0-.13,0-.03,0-.1.02-.22l.02-.16c.1-1.04.51-3.88,1.89-5.44-.79-.82-1.62-1.79-1.93-2.36-.4-.75-3.11-2.78-4.72-3.88-.25-.19-5.83-4.35-9.01-7.79-3.21-3.47-2.6-4.47-1.04-6.24l.2-.23c1.33-1.52,9.93-10.77,15.56-15.6.65-.56,1.31-1.04,1.99-1.44l-2.95,1.34,3.15-2.52c.55-.44,1-.99,1.35-1.54-1.41,1.08-2.54,1.24-3.07,1.24-.16,0-.24-.01-.24-.01l-1.53-.26,1.39-.68c.05-.02,5.1-2.55,4.98-6.79-.04-1.57.29-2.72.98-3.42.49-.5,1.14-.76,1.9-.76.11,0,.22,0,.32.02.37-1.69,2.39-4.43,7.54-5.03.45-.05.89-.08,1.31-.08,4.31,0,5.37,2.92,5.56,3.65.9.97,1.54,3.19,1.03,4.74-.32.98.4,2.05.73,2.46.14.18.18.41.12.63-.06.22-.23.39-.44.47l-.14.04c.14.36.25.71.31.92l.03.12c.02.17-.02.33-.11.47-.01.02-.03.04-.05.06l.03.18c.01.19-.07.38-.22.51-.06.05-.18.15-.15.25.27.84.02,1.43-.22,1.79-.7.99-2.29,1.29-3.12,1.38.02,1.25-.19,2.08-.39,2.89-.14.58-.28,1.13-.33,1.83.74.56,3.09,2.45,4.49,4.97,1.85,3.34,3.59,8.04,1.35,11.44-.25.38-.49.82-.74,1.38.09.73.39,3.46.05,5.29,1.27-.34,3.66-.97,5.11-1.28,1.38-.28,2.12-.86,2.99-1.53.32-.25.66-.51,1.04-.77.19-.13.39-.28.59-.43,1.29-.96,3.06-2.27,7.7-2.37h.05s.05,0,.05,0c.28.05,1.01.19,1.04.79.02.46-.33.83-2.03,1.35.02.02.03.04.04.06.06.09.15.27.13.51.11.05.21.13.29.22.11.13.24.36.2.7l-.05.16s-.01.02-.02.03c.05.06.09.12.12.19.1.21.1.45,0,.67-.04.09-.1.16-.17.24.06.15.07.33.03.51-.22.78-1,.98-2.29,1.33-.33.09-.7.19-1.12.31-1.63.46-3.03,1.26-4.15,1.9l-.45.25c-.07.04-7.58,4.26-11.06,4.93-.21,1.32-.52,2.95-.93,4.85-.35,1.62-.67,2.96-.79,3.43-.05.45-.22.81-.37,1.05,3.49,4.06,5.41,9.51,7.11,14.33,1.09,3.09,2.12,6.01,3.44,8.29,3.23,5.61,1.96,11.95,1.54,14.04-.04.22-.08.39-.09.49-.04.32.04,2.11.12,4.02.19,4.18.47,10.49.08,13.48-.48,3.76,1.04,13.8,1.46,16.44.21-.13.48-.33.77-.62.2-.2.42-.3.66-.3.94,0,1.3,1.44,1.9,3.82.2.81.43,1.69.68,2.53.61,2.04,3.31,2.78,6.44,3.63,1.22.33,2.48.68,3.71,1.12,1.88.68,2.14,1.65,2.03,2.34-.39,2.37-5.98,4.59-10.11,4.68-3.26.07-7.45.51-10.52.83-2.07.21-3.7.38-4.43.38Zm-.13-10.88c0,.15.02.34.04.55.13,1.48.01,3.35-.09,4.99-.1,1.6-.25,4.02.09,4.36-.02-.02.03-.02.1-.02h0c.68,0,2.29-.17,4.32-.38,3.08-.32,7.3-.76,10.6-.83,4.13-.09,8.9-2.34,9.15-3.84.09-.57-.7-.99-1.38-1.24-1.19-.43-2.43-.77-3.63-1.1-3.27-.89-6.36-1.74-7.14-4.3-.26-.85-.49-1.75-.69-2.58-.28-1.1-.65-2.58-.94-3-.94.88-1.63,1.05-1.71,1.07l-.51.11-.09-.52c-.09-.52-2.14-12.9-1.57-17.38.37-2.9.1-9.16-.09-13.31-.11-2.49-.17-3.81-.11-4.2.02-.12.05-.3.1-.55.4-1.99,1.61-8.06-1.42-13.34-1.37-2.36-2.41-5.32-3.52-8.46-1.72-4.86-3.66-10.36-7.19-14.31l-.33-.37.37-.33s.31-.3.38-.87c.13-.53.44-1.85.79-3.46.45-2.05.78-3.79.98-5.15l.06-.38.38-.05c2.77-.34,9.8-4.13,11.06-4.86l.44-.25c1.17-.67,2.62-1.5,4.37-2,.42-.12.8-.22,1.14-.31.53-.14,1.01-.27,1.3-.4l-.17-.91c.07-.02.13-.03.18-.05h-3.86l3.41-.87-.19-.77c-.27.02-.54.06-.67.08l-.13.02-.7.06.17-.68c.09-.37.54-.62,1.55-.86.56-.15.97-.28,1.29-.38-3.78.19-5.23,1.27-6.41,2.14-.22.16-.42.31-.63.45-.36.25-.68.49-.99.73-.92.71-1.8,1.39-3.4,1.71-1.96.41-5.86,1.48-5.9,1.49l-1.01.28.42-.96c.55-1.27.27-4.63.12-5.81l-.02-.14.06-.13c.29-.67.57-1.2.87-1.66,1.96-2.99.33-7.31-1.39-10.41-1.55-2.8-4.37-4.78-4.4-4.8l-.23-.15v-.28c.03-.93.21-1.62.38-2.3.22-.88.43-1.71.35-3.08l-.03-.51.51-.02c.61-.02,2.31-.24,2.84-1,.11-.16.24-.42.09-.91-.1-.31-.05-.63.12-.92-.19-.15-.27-.38-.22-.6.05-.23.23-.4.46-.45-.09-.28-.22-.63-.37-.89l-.32-.54.87-.28c-.45-.67-1.04-1.86-.64-3.05.43-1.31-.28-3.37-.95-3.88l.2-.27-.28.05c-.02-.12-.58-2.98-4.61-2.98-.38,0-.78.03-1.19.07-5.59.66-6.74,3.86-6.72,4.62v.7s-.65-.22-.65-.22c0,0-.26-.08-.6-.08-.49,0-.89.16-1.19.46-.48.5-.72,1.43-.69,2.7.03,1.16-.25,2.19-.7,3.1l.92-1.18-.65,2.4c-.02.06-.22.8-.68,1.73.65-.68,1.26-1.54,1.62-2.58.4-1.13.66-2,.78-2.58l.99.11c0,.68-.04,1.66-.17,2.61.16-.28.28-.56.33-.82l.99.1c0,.55.13,1.8,1.47,2.62l.97.03c0,.57.17,1.4.53,2.59l.18.59-3.47.29-.08-.02c-.6-.14-1.23-.21-1.87-.21-2.29,0-4.51.91-6.59,2.7-5.59,4.8-14.14,13.98-15.46,15.5l-.2.23c-1.31,1.49-1.71,1.94,1.03,4.9,3.11,3.37,8.8,7.61,8.85,7.65.43.29,4.37,3.01,5.02,4.22.25.47,1.14,1.52,2.11,2.49l.35.35-.45.43c-1.4,1.26-1.78,4.29-1.87,5.19l.23.38-.14.09s-.08.05-.12.08c-.02,1.23.17,6.23,4.11,9.25.24-.42.61-1.02,1.13-1.69l.8.6c-.46.63-.84,1.22-1.17,1.82.23.36.69,1.1,1.33,2.09l.11.16-.03.19c-.11.59-1.01,5.92-.52,11.99.52,6.48-1.12,11.93-1.19,12.16l-.12.39-.4-.03c-8.94-.76-21.81,8.81-23.2,9.87-2.89,2.21-6.74,3.06-6.9,3.09l-1.23.26.72-1.04c.22-.32.37-.51.37-.51.07-.14.02-.22,0-.25-.46-.84-4.23-1.09-5.66-1.18-.39-.03-.72-.05-.98-.07-1.78-.17-2.67,2.26-3.03,3.69-.19.76.08,2.11.37,3.54.52,2.59,1.12,5.53-.32,7.51-1.96,2.68-1.08,8.11-.08,10.15.44.9,1.14,1.55,1.68,1.55.58,0,1.28-.94,1.52-3.58.44-5.03,4.18-8.24,5.78-9.61.27-.23.47-.41.6-.54.45-.47,1.23-.68,1.91-.87.06-.02.13-.04.2-.05-.02,0-.03-.01-.05-.02-.41-.19-.73-.36-1-.54l.37-.6-.04-.05s.06-.04.11-.08l.08-.12s.04.02.06.03c1.29-.89,7.09-4.84,10.13-5.68.72-.2,1.71-.44,2.85-.73,4.1-1.03,10.3-2.58,12.91-4.1,1.93-1.12,4.35-1.77,6.3-2.3,1.54-.41,2.86-.77,3.44-1.2,5.8-4.33,7.06-14.73,7.07-14.83v-1.09l.82.76c.23.2.46.39.69.54,4.98,3.52,3.26,9.01,3.25,9.07-.05.11-2.62,6.04-.1,15.36,2.43,9,3.93,24.26,4.09,25.97l-.98.17s.03.06.06.09l-.1-.15c-.06-.14-.13-.28-.19-.41Zm-18.85-126.43c-1,1.51-2.36,2.49-3.2,3,1.88-.77,3.9-.96,5.78-.53l2.09-.18c-.12-.42-.21-.8-.27-1.14-1.28-.55-1.93-1.41-2.25-2.19-.58.87-1.3,1.53-1.34,1.57l-2.03,1.86,1.22-2.39Zm-2.62,33.85h-.45c-.12,0-.22,0-.33-.02-1.5-.22-10.51-7.35-12.01-10.17-.45-.82.77-1.56,3.69-3.33,2.15-1.3,4.83-2.93,6.58-4.56l.29-.27.33.22c.05.04,1.34.9,1.74,2.46.42,1.86.64,4.42.64,7.42,0,2.52-.15,5.22-.44,7.8l-.05.45Zm-11.82-10.5c1.57,2.6,9.17,8.57,10.93,9.4.24-2.38.37-4.84.37-7.15,0-2.92-.21-5.41-.61-7.18-.2-.77-.7-1.32-1.03-1.62-1.82,1.6-4.36,3.14-6.42,4.39-1.35.82-2.87,1.74-3.24,2.16Z"/>
      </g>
      <g>
        <path class="cls-2" d="m262.52,178.1c.41-.39.8-.7,1.15-.96-.35.27-.74.59-1.15.96Z"/>
        <path class="cls-2" d="m262.85,178.46l-.68-.73c.39-.37.79-.71,1.2-1l.6.8c-.34.26-.72.57-1.12.93Z"/>
      </g>
      <g>
        <path class="cls-2" d="m266.82,175.46c-.26.06-.69.19-1.3.49-.5.26-1.13.63-1.85,1.18,1.58-1.23,2.68-1.58,3.15-1.68Z"/>
        <path class="cls-2" d="m263.97,177.53l-.61-.79c1.66-1.29,2.82-1.66,3.36-1.77l.21.98c-.34.08-.75.23-1.19.45-.56.29-1.16.67-1.77,1.14Z"/>
      </g>
    </g>
    <g>
      <g>
        <path class="cls-2" d="m862.69,292.75c-4.44-1.62-9.51-1.91-10.46-5.08-.96-3.15-1.43-6.81-2.42-5.84-.87.84-1.51.98-1.51.98,0,0-2.13-12.78-1.57-17.23.57-4.44-.35-16.43-.2-17.5.15-1.08,2.11-8.14-1.38-14.21-3.51-6.06-4.94-16.33-10.77-22.85,0,0,.45-.4.54-1.18.12-.47.43-1.79.79-3.41s.74-3.53.98-5.18c2.9-.35,10.04-4.22,11.25-4.92,1.24-.7,2.79-1.66,4.7-2.2,1.9-.55,2.88-.64,3.06-1.28.11-.41-.43-.4-.82-.34.46-.11,1.18-.34,1-.74-.12-.26-.47-.3-.82-.29.33-.08.64-.2.73-.36.07-.57-.75-.53-1.36-.41.22-.07.49-.18.83-.34.34-.86-1.66-.43-1.79-.42.01-.05.15-.25,1.18-.49,1.99-.53,3.36-1.11,1.88-1.4-5.21.11-6.58,1.74-8.02,2.71-1.44.97-2.2,1.96-4.21,2.37-2,.42-5.93,1.5-5.93,1.5.69-1.59.21-5.63.15-6.07.25-.56.52-1.1.83-1.58,2.17-3.31.25-8.01-1.37-10.93-1.57-2.84-4.42-4.88-4.56-4.97.06-2.03.87-2.88.72-5.43,0,0,4.15-.14,3.39-2.56-.12-.38.15-.66.32-.79.06-.05.05-.13-.01-.16l-.36-.21c-.07-.05-.05-.15.04-.16l.39-.05c.08-.01.13-.08.12-.16-.08-.28-.27-.96-.54-1.42l.67-.21c.13-.05.18-.21.09-.32-.39-.49-1.21-1.72-.81-2.93.48-1.45-.23-3.76-1.13-4.43.05.04.09.07.12.09,0,0-.67-4-6.35-3.32-5.69.67-7.19,3.95-7.16,5.12,0,0-3.25-1.06-3.13,3.56.13,4.63-5.26,7.26-5.26,7.26,0,0,2.19.33,4.85-3.08,0,0-.75,2.77-2.66,4.29.39-.18,3.47-1.74,4.56-4.85.49-1.41.7-2.19.8-2.64-.01,1.09-.11,3.51-.72,4.7,0,0,1.62-1.48,1.86-2.81-.01.69.18,2.54,2.47,3.42,0,0-.06-.33-.04-.77,0,.59.15,1.42.55,2.73l-2.78.23c-1.79-.42-5.21-.59-8.9,2.59-5.52,4.74-13.97,13.79-15.51,15.55-1.51,1.74-2.36,2.36.83,5.8,3.18,3.45,8.92,7.71,8.92,7.71,0,0,4.27,2.92,4.88,4.06.28.53,1.18,1.59,2.19,2.6-.01.01-.02.02-.05.04-1.84,1.62-2.09,5.82-2.09,5.82.16-.09.32-.18.48-.27-.26.16-.36.25-.48.27,0,0-.52,6.72,4.77,10.32,0,0,.56.91,1.49,2.34-.04.2-1.04,5.77-.53,12.12.52,6.46-1.17,11.97-1.17,11.97-8.68-.74-20.7,7.81-23.54,9.97-2.84,2.17-6.71,3-6.71,3,.21-.3.35-.48.35-.48,1.14-2.06-5.11-2.15-6.98-2.32-1.88-.18-2.99,1.78-3.56,4.07s2.25,7.97.13,10.88c-2.12,2.91-1.17,8.53-.13,10.67s3.63,3.46,4.14-2.2c.49-5.67,5.35-8.92,6.24-9.85.89-.94,4.1-.75,1.91-1.75-.33-.15-.64-.32-.93-.5.21.12.34.18.34.18,0,0,6.91-4.87,10.22-5.78,3.32-.91,12.47-2.9,15.87-4.88,3.39-1.97,8.34-2.44,9.79-3.53,6.03-4.5,7.27-15.16,7.27-15.18.25.21.49.41.74.57,4.72,3.34,3.05,8.5,3.05,8.5,0,0-2.71,6.01-.11,15.64,2.37,8.78,3.85,23.44,4.08,25.89-.01-.05-.04-.11-.07-.14,0,0-1.43-3.28-1.11.39.32,3.67-.9,9.67.39,9.78,1.29.11,9.48-1.08,15.14-1.21,5.65-.13,13.04-4.2,7.93-6.05Zm-44.9-96.19c-.09,0-.18,0-.26-.01-1.27-.19-10.14-7.1-11.64-9.91-.45-.82,6.64-4,10.18-7.29,0,0,1.17.77,1.54,2.17.43,1.93.62,4.54.62,7.29,0,2.59-.16,5.31-.43,7.75Zm.7,24.05c.09-.21.5-1.02,1.31-2.06-.47.64-.91,1.32-1.31,2.06Z"/>
        <path class="cls-2" d="m839.84,300.52h0c-.1,0-.18,0-.24,0-1.27-.1-1.14-2.21-.94-5.39.1-1.61.22-3.43.09-4.84-.12-1.39,0-1.83.22-2.07.12-.13.29-.21.46-.21.07,0,.17,0,.3.07-.5-4.76-1.87-16.45-3.86-23.83-2.62-9.69.02-15.72.13-15.98.04-.15,1.48-4.81-2.88-7.89-.03-.02-.05-.04-.08-.06-.45,2.74-2.2,10.82-7.34,14.66-.73.55-2.07.91-3.78,1.37-1.99.54-4.25,1.14-6.06,2.2-2.73,1.59-9.01,3.16-13.17,4.2-1.13.28-2.12.53-2.83.73-2.6.72-7.6,4.02-9.4,5.25.47.23.92.52.88.99-.04.54-.62.7-1.35.89-.5.14-1.19.32-1.45.59-.14.15-.37.35-.67.6-1.63,1.4-5.03,4.32-5.43,8.94-.33,3.71-1.55,4.49-2.51,4.49-1.14,0-2.1-1.14-2.57-2.11-1.15-2.35-2.08-8.1.17-11.18,1.18-1.62.63-4.33.15-6.72-.33-1.61-.61-3-.36-3.99.72-2.87,2.08-4.46,3.82-4.46.04,0,.18,0,.28.01.25.02.57.05.95.07,3.03.2,5.8.48,6.47,1.7.1.18.18.43.14.75,1.32-.4,3.61-1.23,5.42-2.62,2.28-1.73,14.38-10.6,23.47-10.09.36-1.34,1.47-6.07,1.05-11.4-.47-5.75.31-10.9.5-12.05-.7-1.09-1.18-1.85-1.33-2.1-4.27-2.96-4.86-7.8-4.91-9.8l-.04.02.05-.79c0-.07,0-.11,0-.13,0-.03,0-.1.02-.22v-.16c.12-1.04.52-3.88,1.91-5.44-.79-.82-1.62-1.79-1.92-2.36-.4-.75-3.11-2.78-4.72-3.88-.25-.19-5.84-4.35-9.01-7.79-3.21-3.47-2.6-4.47-1.04-6.24l.2-.23c1.33-1.52,9.94-10.77,15.56-15.6.65-.56,1.31-1.04,1.99-1.44l-2.95,1.34,3.16-2.52c.55-.44,1-.99,1.35-1.54-1.41,1.08-2.54,1.24-3.07,1.24-.16,0-.24-.01-.24-.01l-1.53-.26,1.39-.68c.05-.02,5.1-2.55,4.98-6.79-.04-1.57.29-2.72.98-3.42.49-.5,1.14-.76,1.9-.76.11,0,.22,0,.32.02.37-1.69,2.39-4.43,7.54-5.03.45-.05.89-.08,1.31-.08,4.32,0,5.37,2.92,5.56,3.65.9.97,1.54,3.19,1.03,4.74-.32.98.4,2.05.73,2.46.14.18.18.41.12.63-.06.22-.23.39-.44.47l-.14.04c.14.36.25.71.3.92l.03.13c.02.17-.01.33-.11.47-.01.02-.03.04-.05.06l.03.18c.01.19-.07.38-.22.51-.06.04-.18.15-.15.24.27.84.03,1.44-.22,1.79-.7.99-2.29,1.29-3.12,1.38.02,1.25-.19,2.08-.39,2.89-.15.58-.28,1.13-.33,1.83.74.56,3.09,2.45,4.49,4.97,1.85,3.34,3.59,8.04,1.35,11.44-.25.38-.49.82-.74,1.38.09.73.39,3.46.05,5.29,1.27-.34,3.67-.97,5.11-1.28,1.38-.28,2.09-.83,2.99-1.53.32-.25.66-.51,1.04-.77.19-.13.39-.28.59-.43,1.29-.96,3.06-2.27,7.7-2.37h.05s.05,0,.05,0c.28.05,1.01.19,1.04.79.02.46-.33.83-2.03,1.35.02.02.03.04.04.06.06.09.15.27.13.51.11.05.21.13.29.22.12.13.24.36.2.7l-.05.16s-.01.02-.02.03c.05.06.09.12.12.19.1.21.1.45,0,.67-.04.09-.1.16-.17.24.06.15.07.33.03.51-.22.78-1,.98-2.29,1.33-.33.09-.7.19-1.12.31-1.63.46-3.03,1.26-4.15,1.9l-.45.26c-.07.04-7.57,4.26-11.06,4.93-.21,1.32-.52,2.95-.94,4.85-.35,1.62-.67,2.96-.79,3.43-.05.45-.22.81-.37,1.05,3.49,4.06,5.41,9.51,7.11,14.32,1.09,3.09,2.12,6.01,3.44,8.29,3.23,5.61,1.96,11.95,1.54,14.04-.04.22-.08.39-.09.49-.05.32.04,2.11.12,4.02.19,4.18.47,10.49.08,13.48-.48,3.76,1.04,13.8,1.46,16.44.21-.13.48-.33.78-.62.2-.2.42-.3.66-.3.94,0,1.3,1.44,1.9,3.82.21.81.43,1.69.68,2.53.61,2.04,3.31,2.78,6.44,3.63,1.22.33,2.48.68,3.71,1.12,1.88.68,2.14,1.65,2.03,2.34-.39,2.37-5.98,4.59-10.11,4.68-3.26.07-7.45.51-10.52.83-2.07.21-3.7.38-4.43.38Zm-.13-10.88c0,.15.02.34.04.55.13,1.48.01,3.35-.09,4.99-.1,1.6-.25,4.02.09,4.36-.02-.02.04-.02.1-.02h0c.68,0,2.29-.17,4.32-.38,3.08-.32,7.3-.76,10.6-.83,4.13-.09,8.9-2.34,9.15-3.84.09-.57-.7-.99-1.38-1.24-1.19-.43-2.43-.77-3.63-1.1-3.27-.89-6.36-1.74-7.13-4.3-.26-.85-.49-1.75-.69-2.58-.28-1.1-.65-2.58-.94-3-.94.88-1.63,1.05-1.71,1.07l-.51.11-.09-.52c-.09-.52-2.14-12.9-1.57-17.38.38-2.9.1-9.16-.09-13.31-.11-2.49-.17-3.81-.11-4.2.02-.12.05-.3.1-.55.4-1.99,1.61-8.06-1.42-13.34-1.37-2.36-2.41-5.32-3.52-8.46-1.71-4.86-3.66-10.36-7.19-14.31l-.33-.37.37-.33s.31-.3.38-.87c.13-.53.44-1.85.79-3.46.45-2.05.78-3.79.98-5.15l.06-.38.38-.05c2.77-.34,9.8-4.13,11.07-4.86l.45-.26c1.17-.67,2.62-1.5,4.37-2,.42-.12.8-.22,1.14-.31.53-.14,1.01-.27,1.3-.4l-.17-.91c.07-.02.13-.03.18-.05h-3.87l3.42-.87-.19-.77c-.27.02-.54.06-.67.08l-.13.02-.7.06.17-.68c.09-.37.54-.62,1.55-.86.56-.15.97-.28,1.29-.38-3.78.19-5.23,1.27-6.41,2.15-.21.16-.42.31-.63.45-.37.25-.68.49-.99.73-.92.71-1.8,1.39-3.4,1.71-1.96.41-5.86,1.48-5.9,1.49l-1.01.28.42-.96c.55-1.28.27-4.63.12-5.81l-.02-.14.06-.13c.29-.68.57-1.2.87-1.66,1.96-2.99.33-7.31-1.39-10.41-1.55-2.8-4.37-4.78-4.4-4.8l-.23-.15v-.28c.03-.93.21-1.62.38-2.3.22-.88.43-1.71.35-3.08l-.03-.51.51-.02c.61-.02,2.31-.24,2.84-1,.11-.16.24-.42.09-.91-.1-.31-.05-.63.11-.92-.19-.15-.27-.38-.22-.6.05-.23.23-.4.46-.45-.09-.28-.22-.63-.37-.89l-.32-.54.87-.27c-.45-.67-1.04-1.86-.64-3.05.43-1.31-.28-3.37-.95-3.87l.2-.27-.28.05c-.02-.12-.58-2.98-4.61-2.98-.38,0-.78.03-1.19.07-5.59.66-6.74,3.86-6.72,4.62v.7s-.65-.22-.65-.22c0,0-.26-.08-.6-.08-.49,0-.89.15-1.18.46-.48.5-.72,1.43-.69,2.7.03,1.16-.25,2.19-.7,3.1l.92-1.17-.65,2.39c-.02.06-.22.8-.68,1.73.65-.68,1.26-1.54,1.62-2.58.4-1.14.66-2,.78-2.58l.99.11c0,.68-.04,1.66-.17,2.61.16-.28.28-.56.32-.82l.99.1c0,.55.13,1.8,1.47,2.62l.97.03c0,.58.17,1.4.53,2.59l.18.59-3.47.29-.08-.02c-.6-.14-1.23-.21-1.87-.21-2.29,0-4.51.91-6.59,2.7-5.58,4.79-14.14,13.98-15.46,15.5l-.21.23c-1.31,1.49-1.71,1.94,1.03,4.9,3.11,3.37,8.8,7.61,8.85,7.65.43.29,4.37,3.01,5.02,4.22.25.47,1.14,1.52,2.11,2.49l.35.35-.45.43c-1.4,1.26-1.78,4.29-1.87,5.19l.23.38-.14.09s-.08.05-.12.08c-.02,1.23.17,6.23,4.11,9.25.24-.43.62-1.02,1.13-1.69l.8.6c-.46.62-.84,1.22-1.17,1.81.23.36.69,1.1,1.33,2.09l.11.16-.03.19c-.11.6-1.01,5.95-.52,12,.52,6.48-1.12,11.93-1.19,12.16l-.12.39-.4-.03c-8.99-.77-21.81,8.81-23.2,9.87-2.89,2.21-6.74,3.06-6.9,3.09l-1.23.26.72-1.04c.22-.32.37-.51.37-.51.07-.13.02-.22,0-.25-.46-.84-4.24-1.09-5.66-1.18-.39-.03-.72-.05-.98-.07-1.79-.18-2.67,2.26-3.03,3.69-.19.76.08,2.11.37,3.54.52,2.59,1.12,5.53-.32,7.51-1.96,2.68-1.08,8.11-.08,10.15.44.9,1.14,1.55,1.68,1.55.58,0,1.28-.94,1.52-3.58.44-5.03,4.18-8.24,5.77-9.61.27-.23.48-.41.6-.54.45-.47,1.23-.68,1.91-.87.06-.02.13-.04.2-.05-.02,0-.03-.01-.05-.02-.41-.19-.73-.36-1-.54l.37-.6-.04-.05s.06-.04.12-.08l.08-.12s.04.02.06.03c1.29-.89,7.09-4.84,10.13-5.68.72-.2,1.71-.44,2.85-.73,4.1-1.03,10.3-2.58,12.91-4.09,1.93-1.12,4.35-1.77,6.3-2.3,1.54-.41,2.86-.77,3.44-1.2,5.8-4.33,7.06-14.73,7.07-14.83v-1.08l.82.75c.23.2.46.39.69.54,4.98,3.52,3.26,9.01,3.25,9.07-.05.11-2.62,6.04-.1,15.36,2.43,9,3.93,24.26,4.1,25.97l-.98.17s.03.06.06.09l-.1-.15c-.06-.14-.13-.28-.19-.41Zm-18.85-126.42c-1,1.51-2.36,2.49-3.19,3,1.87-.77,3.9-.96,5.78-.53l2.09-.18c-.12-.42-.21-.8-.27-1.14-1.28-.55-1.93-1.41-2.25-2.19-.58.87-1.3,1.53-1.34,1.57l-2.04,1.86,1.22-2.39Zm-2.62,33.84h-.45c-.12,0-.22,0-.33-.02-1.5-.22-10.51-7.35-12.01-10.17-.45-.82.77-1.56,3.69-3.33,2.15-1.3,4.83-2.93,6.58-4.56l.29-.27.33.22c.05.04,1.34.9,1.74,2.46.42,1.86.64,4.42.64,7.42,0,2.52-.15,5.22-.44,7.8l-.05.45Zm-11.82-10.5c1.57,2.61,9.17,8.57,10.93,9.4.24-2.38.37-4.84.37-7.15,0-2.92-.21-5.41-.61-7.18-.2-.77-.7-1.33-1.03-1.62-1.82,1.6-4.36,3.14-6.42,4.39-1.35.82-2.88,1.74-3.24,2.16Z"/>
      </g>
      <g>
        <path class="cls-2" d="m817.37,178.1c.41-.39.8-.7,1.15-.96-.35.27-.74.59-1.15.96Z"/>
        <path class="cls-2" d="m817.71,178.46l-.68-.73c.39-.37.79-.71,1.2-1l.6.8c-.34.26-.72.57-1.12.93Z"/>
      </g>
      <g>
        <path class="cls-2" d="m821.67,175.46c-.26.06-.69.19-1.3.49-.5.26-1.13.63-1.85,1.18,1.58-1.23,2.68-1.58,3.15-1.68Z"/>
        <path class="cls-2" d="m818.82,177.53l-.61-.79c1.66-1.29,2.82-1.66,3.36-1.77l.21.98c-.34.08-.75.23-1.19.45-.56.29-1.16.67-1.77,1.14Z"/>
      </g>
    </g>
  </g>
</svg>