<?xml version="1.0" encoding="UTF-8"?>
<svg id="Layer_2" data-name="Layer 2" xmlns="http://www.w3.org/2000/svg" viewBox="0 0 512.08 512.08">
  <defs>
    <style>
      .cls-1 {
        fill: #0070c0;
      }
    </style>
  </defs>
  <g id="Layer_1-2" data-name="Layer 1">
    <path class="cls-1" d="m458.64,256.04l46.2-45c6.2-6.1,8.7-15,6.4-23.4-2.3-8.4-8.9-14.9-17.3-17.1l-62.5-15.8,17.5-62c2.4-8.4,0-17.4-6.1-23.5-6.1-6.1-15.1-8.5-23.5-6.1l-62,17.5-15.9-62.5c-2.1-8.4-8.7-15-17.1-17.3-8.4-2.3-17.3.2-23.3,6.5l-45,46.2L211.04,7.34c-6-6.3-15-8.7-23.4-6.5-8.4,2.2-14.9,8.9-17.1,17.3l-15.8,62.5-62-17.5c-8.4-2.4-17.4,0-23.5,6.1-6.1,6.1-8.5,15.1-6.1,23.5l17.5,62-62.5,15.9c-8.4,2.1-15,8.7-17.3,17.1-2.3,8.4.2,17.3,6.5,23.3l46.2,45-46.2,45c-6.3,6-8.7,15-6.5,23.4,2.2,8.4,8.9,14.9,17.3,17.1l62.5,15.8-17.5,62c-2.4,8.4,0,17.4,6.1,23.5s15.1,8.5,23.5,6.1l62-17.5,15.8,62.5c2.1,8.4,8.7,15,17.1,17.3s17.3-.2,23.4-6.4l45-46.2,45,46.2c6.1,6.2,15,8.7,23.4,6.4,8.4-2.3,14.9-8.9,17.1-17.3l15.8-62.5,62,17.5c8.4,2.4,17.4,0,23.5-6.1s8.5-15.1,6.1-23.5l-17.5-62,62.5-15.8c8.4-2.1,15-8.7,17.3-17.1,2.3-8.4-.2-17.3-6.4-23.4l-46.2-45Zm-86.98-56.41l-138.1,141.71c-6.74,6.92-17.69,6.92-24.44,0l-69.05-70.86c-6.74-6.92-6.74-18.16,0-25.08,6.74-6.92,17.69-6.92,24.44,0l56.86,58.29,125.91-129.14c6.74-6.92,17.69-6.92,24.44,0h-.05c6.74,6.92,6.74,18.16,0,25.08Z"/>
  </g>
</svg>