<?xml version="1.0" encoding="UTF-8"?>
<svg id="Layer_2" data-name="Layer 2" xmlns="http://www.w3.org/2000/svg" viewBox="0 0 470.03 100">
  <defs>
    <style>
      .cls-1 {
        fill: none;
        stroke: #064789;
        stroke-miterlimit: 10;
        stroke-width: 6px;
      }

      .cls-2 {
        fill: #064789;
      }

      .cls-3 {
        fill: #4c8577;
      }

      .cls-4 {
        fill: #26532b;
      }
    </style>
  </defs>
  <g id="Layer_1-2" data-name="Layer 1">
    <g>
      <g>
        <path class="cls-4" d="m5.34,49.85c4.03,0,7.63-.03,10.8-.08,3.18-.05,6.08-.13,8.71-.23,2.63-.1,5.1-.24,7.4-.43,2.3-.18,4.61-.4,6.93-.66l.46,4.72c-2.12.26-4.39.49-6.82.7-2.43.21-5.2.36-8.33.46-3.12.1-6.67.18-10.65.23-3.98.05-8.6.08-13.86.08v-20.06h25.33v-10.53H0v-4.8h30.67v19.98H5.34v10.61Zm5.42,23.08c0-1.91.53-3.64,1.59-5.19,1.06-1.55,2.54-2.87,4.45-3.95,1.91-1.08,4.18-1.92,6.82-2.52,2.63-.59,5.52-.89,8.67-.89s6.04.3,8.67.89c2.63.59,4.9,1.45,6.82,2.56,1.91,1.11,3.39,2.44,4.45,3.99,1.06,1.55,1.59,3.28,1.59,5.19v2.79c0,1.96-.53,3.72-1.59,5.27-1.06,1.55-2.54,2.87-4.45,3.95-1.91,1.08-4.18,1.92-6.82,2.52-2.63.59-5.53.89-8.67.89s-6.04-.3-8.67-.89c-2.63-.59-4.91-1.43-6.82-2.52-1.91-1.08-3.4-2.4-4.45-3.95-1.06-1.55-1.59-3.31-1.59-5.27v-2.87Zm21.53,10.84c2.32,0,4.48-.21,6.47-.62,1.99-.41,3.7-1,5.15-1.74,1.44-.75,2.58-1.62,3.41-2.59.83-.98,1.24-2.07,1.24-3.25v-2.32c0-1.13-.41-2.21-1.24-3.21-.83-1.01-1.96-1.88-3.41-2.63-1.45-.75-3.16-1.33-5.15-1.74-1.99-.41-4.14-.62-6.47-.62s-4.48.22-6.47.66c-1.99.44-3.71,1.02-5.15,1.74-1.45.72-2.58,1.59-3.41,2.59-.83,1.01-1.24,2.08-1.24,3.21v2.32c0,1.19.41,2.27,1.24,3.25.83.98,1.96,1.84,3.41,2.59,1.44.75,3.16,1.33,5.15,1.74,1.99.41,4.14.62,6.47.62Zm21.14-25.25h-5.42V15.69h5.42v42.83Z"/>
        <path class="cls-4" d="m126.64,71.77v4.72H61.57v-4.72h65.06Zm-15.18-29.12c.05-1.03.09-2.08.12-3.14.03-1.06.04-2.16.04-3.29v-9.29h-41.44v-4.8h47.09v11.23c0,3.25-.07,6.29-.19,9.1-.13,2.82-.31,5.5-.54,8.06-.23,2.56-.52,5.05-.85,7.47-.34,2.43-.74,4.88-1.2,7.36l-5.65-.62c.57-2.99,1.05-5.91,1.43-8.75.39-2.84.71-5.73.97-8.67l-42.06.77-.16-4.88,42.45-.54Z"/>
        <path class="cls-3" d="m167.45,22.12v4.8h-28.19v19.98h26.57v4.8h-26.57v21.46h28.74v4.8h-34.16V22.12h33.62Z"/>
        <path class="cls-3" d="m196.34,73.78c2.17,0,4.12-.26,5.85-.77,1.73-.52,3.2-1.23,4.41-2.13,1.21-.9,2.13-1.94,2.75-3.1.62-1.16.93-2.36.93-3.6v-1.63c0-1.29-.21-2.45-.62-3.49-.41-1.03-1.16-1.98-2.25-2.83-1.08-.85-2.57-1.63-4.45-2.32-1.89-.7-4.33-1.38-7.32-2.05-3.25-.72-5.98-1.56-8.17-2.52-2.2-.96-3.95-2.04-5.27-3.25-1.32-1.21-2.25-2.56-2.79-4.03-.54-1.47-.81-3.08-.81-4.84v-1.78c0-2.12.45-4.04,1.36-5.77.9-1.73,2.17-3.21,3.79-4.45,1.63-1.24,3.56-2.21,5.81-2.9s4.69-1.05,7.32-1.05c3.77,0,7,.45,9.68,1.36,2.68.9,4.98,2.03,6.89,3.37l-2.56,4.42c-1.81-1.29-3.87-2.31-6.2-3.06-2.32-.75-4.93-1.12-7.82-1.12-1.7,0-3.33.21-4.88.62-1.55.41-2.9,1.02-4.07,1.82s-2.09,1.77-2.79,2.9-1.05,2.43-1.05,3.87v1.55c0,1.19.22,2.27.66,3.25.44.98,1.16,1.86,2.17,2.63,1.01.78,2.36,1.5,4.07,2.17,1.7.67,3.82,1.29,6.35,1.86,3.61.83,6.61,1.72,8.98,2.67,2.37.96,4.26,2.05,5.65,3.29,1.39,1.24,2.37,2.63,2.94,4.18.57,1.55.85,3.33.85,5.34v1.78c0,2.01-.44,3.9-1.32,5.65-.88,1.76-2.13,3.31-3.76,4.65-1.63,1.34-3.64,2.4-6.04,3.18-2.4.77-5.1,1.16-8.09,1.16-3.72,0-7.19-.56-10.42-1.67-3.23-1.11-6.08-2.62-8.56-4.53l2.79-4.57c2.79,2.01,5.51,3.47,8.17,4.38,2.66.9,5.25,1.36,7.78,1.36Z"/>
        <path class="cls-3" d="m246.61,21.27c3.92,0,7.33.48,10.22,1.43,2.89.96,5.5,2.34,7.82,4.14l-2.79,4.26c-2.53-1.81-4.97-3.05-7.32-3.72-2.35-.67-5-1.01-7.94-1.01-2.69,0-5.03.48-7.05,1.43-2.01.96-3.71,2.3-5.07,4.03-1.37,1.73-2.39,3.8-3.06,6.2-.67,2.4-1.01,5.07-1.01,8.02v7.13c0,13.63,5.76,20.45,17.27,20.45,1.14,0,2.31-.05,3.52-.16,1.21-.1,2.4-.27,3.56-.5,1.16-.23,2.26-.53,3.29-.89,1.03-.36,1.94-.77,2.71-1.24v-17.66h-13.17v-4.8h18.43v25.48c-2.43,1.76-5.2,3.02-8.33,3.79-3.12.77-6.54,1.16-10.26,1.16-7.69,0-13.37-2.25-17.04-6.74-3.67-4.49-5.5-10.79-5.5-18.9v-6.89c0-7.95,1.85-14.11,5.54-18.47,3.69-4.36,9.07-6.54,16.15-6.54Z"/>
        <path class="cls-2" d="m297.5,48.92c1.55-1.81,2.79-3.36,3.72-4.65.93-1.29,1.64-2.44,2.13-3.45.49-1.01.83-1.9,1.01-2.67.18-.77.27-1.52.27-2.25v-.62c0-2.79-.92-5-2.75-6.62-1.83-1.63-4.45-2.44-7.86-2.44-2.48,0-4.8.59-6.97,1.78-2.17,1.19-4.16,3.41-5.96,6.66l-4.34-2.71c.67-1.19,1.5-2.41,2.48-3.68.98-1.26,2.17-2.41,3.56-3.45,1.39-1.03,3.01-1.88,4.84-2.56,1.83-.67,3.91-1.01,6.24-1.01,2.48,0,4.72.34,6.74,1.01,2.01.67,3.72,1.61,5.11,2.83,1.39,1.21,2.48,2.69,3.25,4.42.78,1.73,1.16,3.63,1.16,5.69v.77c0,1.5-.26,2.96-.77,4.38-.52,1.42-1.2,2.8-2.05,4.14-.85,1.34-1.85,2.69-2.98,4.03-1.14,1.34-2.3,2.71-3.49,4.11l-17.35,20.37h28.66v4.96h-35.47v-4.65l20.83-24.4Z"/>
        <path class="cls-2" d="m341.26,77.96V28.93l-13.48,8.21-2.48-4.34,17.27-10.69h4.1v55.84h-5.42Z"/>
      </g>
      <g>
        <path class="cls-2" d="m440.31,73h-47.95l.16-23.85v-2.95h26.33v-15.16h-26.33v-5.19h31.91v25.53h-26.33l-.16,16.43h42.36V24.73h-5.19v-5.19h10.77v70.84h-5.58v-17.39Z"/>
        <circle class="cls-1" cx="420.03" cy="50" r="47"/>
      </g>
    </g>
  </g>
</svg>